<mxfile host="app.diagrams.net" modified="2023-11-30T03:27:26.572Z" agent="Mozilla/5.0 (Windows NT 10.0; Win64; x64) AppleWebKit/537.36 (KHTML, like Gecko) Chrome/119.0.0.0 Safari/537.36" etag="_ObNJXsYrDRjfE5OpfDl" version="22.1.5" type="device">
  <diagram id="C5RBs43oDa-KdzZeNtuy" name="Page-1">
    <mxGraphModel dx="3566" dy="2180" grid="1" gridSize="10" guides="1" tooltips="1" connect="1" arrows="1" fold="1" page="1" pageScale="1" pageWidth="827" pageHeight="1169" math="0" shadow="0">
      <root>
        <mxCell id="WIyWlLk6GJQsqaUBKTNV-0" />
        <mxCell id="WIyWlLk6GJQsqaUBKTNV-1" parent="WIyWlLk6GJQsqaUBKTNV-0" />
        <mxCell id="HMQuZuba5tz66sJMeMX4-11" value="" style="endArrow=block;dashed=1;endFill=0;endSize=12;html=1;rounded=0;exitX=1.003;exitY=0.404;exitDx=0;exitDy=0;entryX=-0.003;entryY=-0.007;entryDx=0;entryDy=0;entryPerimeter=0;exitPerimeter=0;" parent="WIyWlLk6GJQsqaUBKTNV-1" source="_wEa0kd7vMuWTm594oS8-11" edge="1" target="_wEa0kd7vMuWTm594oS8-122">
          <mxGeometry width="160" relative="1" as="geometry">
            <mxPoint x="-230" y="1093" as="sourcePoint" />
            <mxPoint x="-150.07999999999993" y="1067.9920000000002" as="targetPoint" />
            <Array as="points" />
          </mxGeometry>
        </mxCell>
        <mxCell id="HMQuZuba5tz66sJMeMX4-12" value="" style="endArrow=block;dashed=1;endFill=0;endSize=12;html=1;rounded=0;exitX=1.001;exitY=0.396;exitDx=0;exitDy=0;entryX=0.042;entryY=0.99;entryDx=0;entryDy=0;entryPerimeter=0;exitPerimeter=0;" parent="WIyWlLk6GJQsqaUBKTNV-1" source="_wEa0kd7vMuWTm594oS8-6" target="_wEa0kd7vMuWTm594oS8-124" edge="1">
          <mxGeometry width="160" relative="1" as="geometry">
            <mxPoint x="180" y="970" as="sourcePoint" />
            <mxPoint x="490" y="933" as="targetPoint" />
          </mxGeometry>
        </mxCell>
        <mxCell id="HMQuZuba5tz66sJMeMX4-13" value="" style="endArrow=block;dashed=1;endFill=0;endSize=12;html=1;rounded=0;entryX=0.997;entryY=0.894;entryDx=0;entryDy=0;exitX=0;exitY=0.5;exitDx=0;exitDy=0;entryPerimeter=0;" parent="WIyWlLk6GJQsqaUBKTNV-1" source="_wEa0kd7vMuWTm594oS8-109" target="_wEa0kd7vMuWTm594oS8-122" edge="1">
          <mxGeometry width="160" relative="1" as="geometry">
            <mxPoint x="350" y="940" as="sourcePoint" />
            <mxPoint x="540" y="933" as="targetPoint" />
          </mxGeometry>
        </mxCell>
        <mxCell id="HMQuZuba5tz66sJMeMX4-16" value="App" style="swimlane;fontStyle=1;align=center;verticalAlign=top;childLayout=stackLayout;horizontal=1;startSize=26;horizontalStack=0;resizeParent=1;resizeParentMax=0;resizeLast=0;collapsible=1;marginBottom=0;whiteSpace=wrap;html=1;" parent="WIyWlLk6GJQsqaUBKTNV-1" vertex="1">
          <mxGeometry x="610" y="296" width="160" height="34" as="geometry" />
        </mxCell>
        <mxCell id="HMQuZuba5tz66sJMeMX4-17" value="" style="line;strokeWidth=1;fillColor=none;align=left;verticalAlign=middle;spacingTop=-1;spacingLeft=3;spacingRight=3;rotatable=0;labelPosition=right;points=[];portConstraint=eastwest;strokeColor=inherit;" parent="HMQuZuba5tz66sJMeMX4-16" vertex="1">
          <mxGeometry y="26" width="160" height="8" as="geometry" />
        </mxCell>
        <mxCell id="bj67NkAzpCeHK8tnrzcI-0" value="" style="endArrow=block;dashed=1;endFill=0;endSize=12;html=1;rounded=0;exitX=-0.008;exitY=0.962;exitDx=0;exitDy=0;entryX=1.023;entryY=0.23;entryDx=0;entryDy=0;exitPerimeter=0;entryPerimeter=0;" parent="WIyWlLk6GJQsqaUBKTNV-1" source="_wEa0kd7vMuWTm594oS8-76" target="_wEa0kd7vMuWTm594oS8-122" edge="1">
          <mxGeometry width="160" relative="1" as="geometry">
            <mxPoint x="550" y="953" as="sourcePoint" />
            <mxPoint x="760" y="903" as="targetPoint" />
          </mxGeometry>
        </mxCell>
        <mxCell id="bj67NkAzpCeHK8tnrzcI-17" value="JFrame" style="swimlane;fontStyle=1;align=center;verticalAlign=top;childLayout=stackLayout;horizontal=1;startSize=26;horizontalStack=0;resizeParent=1;resizeParentMax=0;resizeLast=0;collapsible=1;marginBottom=0;whiteSpace=wrap;html=1;" parent="WIyWlLk6GJQsqaUBKTNV-1" vertex="1">
          <mxGeometry x="1390" y="357" width="160" height="34" as="geometry" />
        </mxCell>
        <mxCell id="bj67NkAzpCeHK8tnrzcI-18" value="" style="line;strokeWidth=1;fillColor=none;align=left;verticalAlign=middle;spacingTop=-1;spacingLeft=3;spacingRight=3;rotatable=0;labelPosition=right;points=[];portConstraint=eastwest;strokeColor=inherit;" parent="bj67NkAzpCeHK8tnrzcI-17" vertex="1">
          <mxGeometry y="26" width="160" height="8" as="geometry" />
        </mxCell>
        <mxCell id="bj67NkAzpCeHK8tnrzcI-22" value="" style="endArrow=diamondThin;endFill=0;endSize=24;html=1;rounded=0;exitX=0.002;exitY=0.736;exitDx=0;exitDy=0;entryX=0.997;entryY=0.072;entryDx=0;entryDy=0;entryPerimeter=0;exitPerimeter=0;" parent="WIyWlLk6GJQsqaUBKTNV-1" source="_wEa0kd7vMuWTm594oS8-127" target="_wEa0kd7vMuWTm594oS8-100" edge="1">
          <mxGeometry width="160" relative="1" as="geometry">
            <mxPoint x="530" y="562" as="sourcePoint" />
            <mxPoint x="400" y="512" as="targetPoint" />
          </mxGeometry>
        </mxCell>
        <mxCell id="bj67NkAzpCeHK8tnrzcI-35" value="1" style="edgeLabel;html=1;align=center;verticalAlign=middle;resizable=0;points=[];" parent="bj67NkAzpCeHK8tnrzcI-22" connectable="0" vertex="1">
          <mxGeometry x="0.1167" y="2" relative="1" as="geometry">
            <mxPoint x="-25" y="4" as="offset" />
          </mxGeometry>
        </mxCell>
        <mxCell id="bj67NkAzpCeHK8tnrzcI-36" value="1" style="edgeLabel;html=1;align=center;verticalAlign=middle;resizable=0;points=[];" parent="bj67NkAzpCeHK8tnrzcI-22" connectable="0" vertex="1">
          <mxGeometry x="-0.7119" y="1" relative="1" as="geometry">
            <mxPoint x="4" y="5" as="offset" />
          </mxGeometry>
        </mxCell>
        <mxCell id="bj67NkAzpCeHK8tnrzcI-56" value="has a&amp;nbsp;" style="edgeLabel;html=1;align=center;verticalAlign=middle;resizable=0;points=[];" parent="bj67NkAzpCeHK8tnrzcI-22" connectable="0" vertex="1">
          <mxGeometry x="-0.1332" y="1" relative="1" as="geometry">
            <mxPoint as="offset" />
          </mxGeometry>
        </mxCell>
        <mxCell id="bj67NkAzpCeHK8tnrzcI-21" value="" style="endArrow=diamondThin;endFill=0;endSize=24;html=1;rounded=0;exitX=0.5;exitY=0;exitDx=0;exitDy=0;entryX=0.942;entryY=1.059;entryDx=0;entryDy=0;entryPerimeter=0;" parent="WIyWlLk6GJQsqaUBKTNV-1" source="_wEa0kd7vMuWTm594oS8-121" target="_wEa0kd7vMuWTm594oS8-103" edge="1">
          <mxGeometry width="160" relative="1" as="geometry">
            <mxPoint x="410" y="656" as="sourcePoint" />
            <mxPoint x="470" y="556" as="targetPoint" />
          </mxGeometry>
        </mxCell>
        <mxCell id="bj67NkAzpCeHK8tnrzcI-37" value="0..*" style="edgeLabel;html=1;align=center;verticalAlign=middle;resizable=0;points=[];" parent="bj67NkAzpCeHK8tnrzcI-21" connectable="0" vertex="1">
          <mxGeometry x="0.5368" y="1" relative="1" as="geometry">
            <mxPoint x="23" y="-16" as="offset" />
          </mxGeometry>
        </mxCell>
        <mxCell id="bj67NkAzpCeHK8tnrzcI-38" value="1" style="edgeLabel;html=1;align=center;verticalAlign=middle;resizable=0;points=[];" parent="bj67NkAzpCeHK8tnrzcI-21" connectable="0" vertex="1">
          <mxGeometry x="-0.7023" y="-1" relative="1" as="geometry">
            <mxPoint x="4" y="18" as="offset" />
          </mxGeometry>
        </mxCell>
        <mxCell id="bj67NkAzpCeHK8tnrzcI-55" value="has a&amp;nbsp;" style="edgeLabel;html=1;align=center;verticalAlign=middle;resizable=0;points=[];" parent="bj67NkAzpCeHK8tnrzcI-21" connectable="0" vertex="1">
          <mxGeometry x="0.0448" y="-1" relative="1" as="geometry">
            <mxPoint as="offset" />
          </mxGeometry>
        </mxCell>
        <mxCell id="bj67NkAzpCeHK8tnrzcI-47" value="" style="endArrow=none;html=1;edgeStyle=orthogonalEdgeStyle;rounded=0;exitX=0.75;exitY=0;exitDx=0;exitDy=0;entryX=0.116;entryY=0.999;entryDx=0;entryDy=0;entryPerimeter=0;" parent="WIyWlLk6GJQsqaUBKTNV-1" source="_wEa0kd7vMuWTm594oS8-121" target="_wEa0kd7vMuWTm594oS8-83" edge="1">
          <mxGeometry relative="1" as="geometry">
            <mxPoint x="549.51" y="498" as="sourcePoint" />
            <mxPoint x="510" y="250" as="targetPoint" />
            <Array as="points">
              <mxPoint x="125" y="760" />
              <mxPoint x="180" y="760" />
              <mxPoint x="180" y="520" />
              <mxPoint x="550" y="520" />
              <mxPoint x="550" y="270" />
              <mxPoint x="509" y="270" />
            </Array>
          </mxGeometry>
        </mxCell>
        <mxCell id="bj67NkAzpCeHK8tnrzcI-149" value="1" style="edgeLabel;html=1;align=center;verticalAlign=middle;resizable=0;points=[];" parent="bj67NkAzpCeHK8tnrzcI-47" connectable="0" vertex="1">
          <mxGeometry x="-0.9748" y="-1" relative="1" as="geometry">
            <mxPoint x="9" as="offset" />
          </mxGeometry>
        </mxCell>
        <mxCell id="bj67NkAzpCeHK8tnrzcI-49" value="" style="endArrow=none;html=1;edgeStyle=orthogonalEdgeStyle;rounded=0;exitX=1.006;exitY=0.33;exitDx=0;exitDy=0;exitPerimeter=0;entryX=0.071;entryY=1;entryDx=0;entryDy=0;entryPerimeter=0;" parent="WIyWlLk6GJQsqaUBKTNV-1" source="_wEa0kd7vMuWTm594oS8-101" target="_wEa0kd7vMuWTm594oS8-83" edge="1">
          <mxGeometry relative="1" as="geometry">
            <mxPoint x="500" y="400" as="sourcePoint" />
            <mxPoint x="472" y="230" as="targetPoint" />
            <Array as="points">
              <mxPoint x="62" y="503" />
              <mxPoint x="500" y="503" />
              <mxPoint x="500" y="270" />
              <mxPoint x="472" y="270" />
            </Array>
          </mxGeometry>
        </mxCell>
        <mxCell id="bj67NkAzpCeHK8tnrzcI-50" value="uses" style="edgeLabel;resizable=0;html=1;align=right;verticalAlign=bottom;" parent="bj67NkAzpCeHK8tnrzcI-49" connectable="0" vertex="1">
          <mxGeometry x="1" relative="1" as="geometry">
            <mxPoint x="28" y="30" as="offset" />
          </mxGeometry>
        </mxCell>
        <mxCell id="bj67NkAzpCeHK8tnrzcI-137" value="1" style="edgeLabel;html=1;align=center;verticalAlign=middle;resizable=0;points=[];" parent="bj67NkAzpCeHK8tnrzcI-49" connectable="0" vertex="1">
          <mxGeometry x="0.9454" y="-2" relative="1" as="geometry">
            <mxPoint x="-12" as="offset" />
          </mxGeometry>
        </mxCell>
        <mxCell id="bj67NkAzpCeHK8tnrzcI-138" value="1" style="edgeLabel;html=1;align=center;verticalAlign=middle;resizable=0;points=[];" parent="bj67NkAzpCeHK8tnrzcI-49" connectable="0" vertex="1">
          <mxGeometry x="-0.9619" y="2" relative="1" as="geometry">
            <mxPoint x="-1" y="-9" as="offset" />
          </mxGeometry>
        </mxCell>
        <mxCell id="bj67NkAzpCeHK8tnrzcI-51" value="" style="endArrow=diamondThin;endFill=1;endSize=24;html=1;rounded=0;exitX=0.5;exitY=0;exitDx=0;exitDy=0;entryX=0.477;entryY=1.063;entryDx=0;entryDy=0;entryPerimeter=0;" parent="WIyWlLk6GJQsqaUBKTNV-1" source="_wEa0kd7vMuWTm594oS8-70" target="_wEa0kd7vMuWTm594oS8-111" edge="1">
          <mxGeometry width="160" relative="1" as="geometry">
            <mxPoint x="420" y="1090" as="sourcePoint" />
            <mxPoint x="420" y="987" as="targetPoint" />
          </mxGeometry>
        </mxCell>
        <mxCell id="bj67NkAzpCeHK8tnrzcI-52" value="1" style="edgeLabel;html=1;align=center;verticalAlign=middle;resizable=0;points=[];" parent="bj67NkAzpCeHK8tnrzcI-51" connectable="0" vertex="1">
          <mxGeometry x="0.4539" relative="1" as="geometry">
            <mxPoint x="10" as="offset" />
          </mxGeometry>
        </mxCell>
        <mxCell id="bj67NkAzpCeHK8tnrzcI-53" value="1" style="edgeLabel;html=1;align=center;verticalAlign=middle;resizable=0;points=[];" parent="bj67NkAzpCeHK8tnrzcI-51" connectable="0" vertex="1">
          <mxGeometry x="-0.6384" y="2" relative="1" as="geometry">
            <mxPoint x="12" y="11" as="offset" />
          </mxGeometry>
        </mxCell>
        <mxCell id="bj67NkAzpCeHK8tnrzcI-54" value="owns" style="edgeLabel;html=1;align=center;verticalAlign=middle;resizable=0;points=[];" parent="bj67NkAzpCeHK8tnrzcI-51" connectable="0" vertex="1">
          <mxGeometry x="-0.1024" y="2" relative="1" as="geometry">
            <mxPoint as="offset" />
          </mxGeometry>
        </mxCell>
        <mxCell id="bj67NkAzpCeHK8tnrzcI-57" value="" style="endArrow=diamondThin;endFill=0;endSize=24;html=1;rounded=0;exitX=0.457;exitY=1;exitDx=0;exitDy=0;exitPerimeter=0;" parent="WIyWlLk6GJQsqaUBKTNV-1" source="_wEa0kd7vMuWTm594oS8-16" target="_wEa0kd7vMuWTm594oS8-126" edge="1">
          <mxGeometry width="160" relative="1" as="geometry">
            <mxPoint x="250" y="-86" as="sourcePoint" />
            <mxPoint x="450" y="310" as="targetPoint" />
          </mxGeometry>
        </mxCell>
        <mxCell id="bj67NkAzpCeHK8tnrzcI-58" value="1" style="edgeLabel;html=1;align=center;verticalAlign=middle;resizable=0;points=[];" parent="bj67NkAzpCeHK8tnrzcI-57" connectable="0" vertex="1">
          <mxGeometry x="0.5001" y="1" relative="1" as="geometry">
            <mxPoint x="9" y="18" as="offset" />
          </mxGeometry>
        </mxCell>
        <mxCell id="bj67NkAzpCeHK8tnrzcI-59" value="1" style="edgeLabel;html=1;align=center;verticalAlign=middle;resizable=0;points=[];" parent="bj67NkAzpCeHK8tnrzcI-57" connectable="0" vertex="1">
          <mxGeometry x="-0.2914" y="2" relative="1" as="geometry">
            <mxPoint x="4" y="-34" as="offset" />
          </mxGeometry>
        </mxCell>
        <mxCell id="bj67NkAzpCeHK8tnrzcI-60" value="has a&amp;nbsp;" style="edgeLabel;html=1;align=center;verticalAlign=middle;resizable=0;points=[];" parent="bj67NkAzpCeHK8tnrzcI-57" connectable="0" vertex="1">
          <mxGeometry x="-0.1292" y="1" relative="1" as="geometry">
            <mxPoint as="offset" />
          </mxGeometry>
        </mxCell>
        <mxCell id="bj67NkAzpCeHK8tnrzcI-61" value="" style="endArrow=diamondThin;endFill=1;endSize=24;html=1;rounded=0;entryX=0.002;entryY=0.004;entryDx=0;entryDy=0;entryPerimeter=0;" parent="WIyWlLk6GJQsqaUBKTNV-1" source="_wEa0kd7vMuWTm594oS8-120" target="_wEa0kd7vMuWTm594oS8-127" edge="1">
          <mxGeometry width="160" relative="1" as="geometry">
            <mxPoint x="340" y="300" as="sourcePoint" />
            <mxPoint x="500" y="300" as="targetPoint" />
          </mxGeometry>
        </mxCell>
        <mxCell id="bj67NkAzpCeHK8tnrzcI-62" value="1" style="edgeLabel;html=1;align=center;verticalAlign=middle;resizable=0;points=[];" parent="bj67NkAzpCeHK8tnrzcI-61" connectable="0" vertex="1">
          <mxGeometry x="0.4772" relative="1" as="geometry">
            <mxPoint x="9" y="-5" as="offset" />
          </mxGeometry>
        </mxCell>
        <mxCell id="bj67NkAzpCeHK8tnrzcI-68" value="1..*" style="edgeLabel;html=1;align=center;verticalAlign=middle;resizable=0;points=[];" parent="bj67NkAzpCeHK8tnrzcI-61" connectable="0" vertex="1">
          <mxGeometry x="-0.7964" y="-1" relative="1" as="geometry">
            <mxPoint x="25" as="offset" />
          </mxGeometry>
        </mxCell>
        <mxCell id="bj67NkAzpCeHK8tnrzcI-69" value="has" style="edgeLabel;html=1;align=center;verticalAlign=middle;resizable=0;points=[];" parent="bj67NkAzpCeHK8tnrzcI-61" connectable="0" vertex="1">
          <mxGeometry x="-0.1236" y="1" relative="1" as="geometry">
            <mxPoint as="offset" />
          </mxGeometry>
        </mxCell>
        <mxCell id="bj67NkAzpCeHK8tnrzcI-45" value="" style="endArrow=none;html=1;edgeStyle=orthogonalEdgeStyle;rounded=0;exitX=0.996;exitY=0.451;exitDx=0;exitDy=0;exitPerimeter=0;entryX=0.033;entryY=1;entryDx=0;entryDy=0;entryPerimeter=0;" parent="WIyWlLk6GJQsqaUBKTNV-1" source="_wEa0kd7vMuWTm594oS8-127" target="_wEa0kd7vMuWTm594oS8-83" edge="1">
          <mxGeometry relative="1" as="geometry">
            <mxPoint x="555" y="406" as="sourcePoint" />
            <mxPoint x="440" y="250" as="targetPoint" />
            <Array as="points">
              <mxPoint x="450" y="362" />
              <mxPoint x="450" y="250" />
              <mxPoint x="441" y="250" />
            </Array>
          </mxGeometry>
        </mxCell>
        <mxCell id="bj67NkAzpCeHK8tnrzcI-150" value="&amp;nbsp; &amp;nbsp; &amp;nbsp; &amp;nbsp; &amp;nbsp; uses" style="edgeLabel;html=1;align=center;verticalAlign=middle;resizable=0;points=[];" parent="bj67NkAzpCeHK8tnrzcI-45" connectable="0" vertex="1">
          <mxGeometry x="0.9089" y="1" relative="1" as="geometry">
            <mxPoint y="48" as="offset" />
          </mxGeometry>
        </mxCell>
        <mxCell id="bj67NkAzpCeHK8tnrzcI-151" value="1" style="edgeLabel;html=1;align=center;verticalAlign=middle;resizable=0;points=[];" parent="bj67NkAzpCeHK8tnrzcI-45" connectable="0" vertex="1">
          <mxGeometry x="0.8898" y="1" relative="1" as="geometry">
            <mxPoint x="-9" as="offset" />
          </mxGeometry>
        </mxCell>
        <mxCell id="bj67NkAzpCeHK8tnrzcI-152" value="1" style="edgeLabel;html=1;align=center;verticalAlign=middle;resizable=0;points=[];" parent="bj67NkAzpCeHK8tnrzcI-45" connectable="0" vertex="1">
          <mxGeometry x="-0.8772" y="2" relative="1" as="geometry">
            <mxPoint y="9" as="offset" />
          </mxGeometry>
        </mxCell>
        <mxCell id="bj67NkAzpCeHK8tnrzcI-120" value="" style="endArrow=none;html=1;edgeStyle=orthogonalEdgeStyle;rounded=0;exitX=-0.001;exitY=0.431;exitDx=0;exitDy=0;exitPerimeter=0;" parent="WIyWlLk6GJQsqaUBKTNV-1" source="_wEa0kd7vMuWTm594oS8-127" edge="1">
          <mxGeometry relative="1" as="geometry">
            <mxPoint x="260" y="110" as="sourcePoint" />
            <mxPoint x="-320" y="140" as="targetPoint" />
            <Array as="points">
              <mxPoint x="110" y="370" />
              <mxPoint x="-320" y="370" />
            </Array>
          </mxGeometry>
        </mxCell>
        <mxCell id="bj67NkAzpCeHK8tnrzcI-121" value="uses" style="edgeLabel;resizable=0;html=1;align=left;verticalAlign=bottom;" parent="bj67NkAzpCeHK8tnrzcI-120" connectable="0" vertex="1">
          <mxGeometry x="-1" relative="1" as="geometry">
            <mxPoint x="-10" y="-29" as="offset" />
          </mxGeometry>
        </mxCell>
        <mxCell id="bj67NkAzpCeHK8tnrzcI-141" value="1" style="edgeLabel;html=1;align=center;verticalAlign=middle;resizable=0;points=[];" parent="bj67NkAzpCeHK8tnrzcI-120" connectable="0" vertex="1">
          <mxGeometry x="0.9597" y="-2" relative="1" as="geometry">
            <mxPoint x="8" as="offset" />
          </mxGeometry>
        </mxCell>
        <mxCell id="bj67NkAzpCeHK8tnrzcI-142" value="1" style="edgeLabel;html=1;align=center;verticalAlign=middle;resizable=0;points=[];" parent="bj67NkAzpCeHK8tnrzcI-120" connectable="0" vertex="1">
          <mxGeometry x="-0.9241" y="1" relative="1" as="geometry">
            <mxPoint x="11" y="-6" as="offset" />
          </mxGeometry>
        </mxCell>
        <mxCell id="bj67NkAzpCeHK8tnrzcI-123" value="" style="endArrow=none;html=1;edgeStyle=orthogonalEdgeStyle;rounded=0;exitX=0.182;exitY=0.014;exitDx=0;exitDy=0;entryX=0.667;entryY=1.1;entryDx=0;entryDy=0;entryPerimeter=0;exitPerimeter=0;" parent="WIyWlLk6GJQsqaUBKTNV-1" source="_wEa0kd7vMuWTm594oS8-121" target="_wEa0kd7vMuWTm594oS8-88" edge="1">
          <mxGeometry relative="1" as="geometry">
            <mxPoint x="190" y="50" as="sourcePoint" />
            <mxPoint x="-350" y="480" as="targetPoint" />
            <Array as="points">
              <mxPoint y="760" />
              <mxPoint x="-350" y="760" />
            </Array>
          </mxGeometry>
        </mxCell>
        <mxCell id="bj67NkAzpCeHK8tnrzcI-125" value="uses" style="edgeLabel;resizable=0;html=1;align=right;verticalAlign=bottom;" parent="bj67NkAzpCeHK8tnrzcI-123" connectable="0" vertex="1">
          <mxGeometry x="1" relative="1" as="geometry">
            <mxPoint x="-40" y="3" as="offset" />
          </mxGeometry>
        </mxCell>
        <mxCell id="bj67NkAzpCeHK8tnrzcI-139" value="1" style="edgeLabel;html=1;align=center;verticalAlign=middle;resizable=0;points=[];" parent="bj67NkAzpCeHK8tnrzcI-123" connectable="0" vertex="1">
          <mxGeometry x="0.9838" y="2" relative="1" as="geometry">
            <mxPoint y="-5" as="offset" />
          </mxGeometry>
        </mxCell>
        <mxCell id="bj67NkAzpCeHK8tnrzcI-140" value="0..*" style="edgeLabel;html=1;align=center;verticalAlign=middle;resizable=0;points=[];" parent="bj67NkAzpCeHK8tnrzcI-123" connectable="0" vertex="1">
          <mxGeometry x="-0.9473" relative="1" as="geometry">
            <mxPoint x="-10" y="10" as="offset" />
          </mxGeometry>
        </mxCell>
        <mxCell id="SON6QVPJstQpftza3PIU-34" value="&amp;lt;&amp;lt;all frames and dislays use&amp;gt;&amp;gt;" style="text;html=1;align=center;verticalAlign=middle;resizable=0;points=[];autosize=1;strokeColor=none;fillColor=none;" parent="WIyWlLk6GJQsqaUBKTNV-1" vertex="1">
          <mxGeometry x="1234" y="220" width="190" height="30" as="geometry" />
        </mxCell>
        <mxCell id="ydcLXZ2iIXeA3Rsq2fUr-0" value="AddCreditCardFrame" style="swimlane;fontStyle=1;align=center;verticalAlign=top;childLayout=stackLayout;horizontal=1;startSize=26;horizontalStack=0;resizeParent=1;resizeParentMax=0;resizeLast=0;collapsible=1;marginBottom=0;whiteSpace=wrap;html=1;" parent="WIyWlLk6GJQsqaUBKTNV-1" vertex="1">
          <mxGeometry x="610" y="580" width="160" height="34" as="geometry" />
        </mxCell>
        <mxCell id="ydcLXZ2iIXeA3Rsq2fUr-1" value="" style="line;strokeWidth=1;fillColor=none;align=left;verticalAlign=middle;spacingTop=-1;spacingLeft=3;spacingRight=3;rotatable=0;labelPosition=right;points=[];portConstraint=eastwest;strokeColor=inherit;" parent="ydcLXZ2iIXeA3Rsq2fUr-0" vertex="1">
          <mxGeometry y="26" width="160" height="8" as="geometry" />
        </mxCell>
        <mxCell id="ydcLXZ2iIXeA3Rsq2fUr-4" value="WelcomeFrame" style="swimlane;fontStyle=1;align=center;verticalAlign=top;childLayout=stackLayout;horizontal=1;startSize=26;horizontalStack=0;resizeParent=1;resizeParentMax=0;resizeLast=0;collapsible=1;marginBottom=0;whiteSpace=wrap;html=1;" parent="WIyWlLk6GJQsqaUBKTNV-1" vertex="1">
          <mxGeometry x="610" y="520" width="160" height="34" as="geometry" />
        </mxCell>
        <mxCell id="ydcLXZ2iIXeA3Rsq2fUr-5" value="" style="line;strokeWidth=1;fillColor=none;align=left;verticalAlign=middle;spacingTop=-1;spacingLeft=3;spacingRight=3;rotatable=0;labelPosition=right;points=[];portConstraint=eastwest;strokeColor=inherit;" parent="ydcLXZ2iIXeA3Rsq2fUr-4" vertex="1">
          <mxGeometry y="26" width="160" height="8" as="geometry" />
        </mxCell>
        <mxCell id="ydcLXZ2iIXeA3Rsq2fUr-6" value="FlightEditFrame" style="swimlane;fontStyle=1;align=center;verticalAlign=top;childLayout=stackLayout;horizontal=1;startSize=26;horizontalStack=0;resizeParent=1;resizeParentMax=0;resizeLast=0;collapsible=1;marginBottom=0;whiteSpace=wrap;html=1;" parent="WIyWlLk6GJQsqaUBKTNV-1" vertex="1">
          <mxGeometry x="2206" y="286" width="160" height="34" as="geometry" />
        </mxCell>
        <mxCell id="ydcLXZ2iIXeA3Rsq2fUr-7" value="" style="line;strokeWidth=1;fillColor=none;align=left;verticalAlign=middle;spacingTop=-1;spacingLeft=3;spacingRight=3;rotatable=0;labelPosition=right;points=[];portConstraint=eastwest;strokeColor=inherit;" parent="ydcLXZ2iIXeA3Rsq2fUr-6" vertex="1">
          <mxGeometry y="26" width="160" height="8" as="geometry" />
        </mxCell>
        <mxCell id="ydcLXZ2iIXeA3Rsq2fUr-8" value="DisplayUsers" style="swimlane;fontStyle=1;align=center;verticalAlign=top;childLayout=stackLayout;horizontal=1;startSize=26;horizontalStack=0;resizeParent=1;resizeParentMax=0;resizeLast=0;collapsible=1;marginBottom=0;whiteSpace=wrap;html=1;" parent="WIyWlLk6GJQsqaUBKTNV-1" vertex="1">
          <mxGeometry x="2206" y="424" width="160" height="34" as="geometry" />
        </mxCell>
        <mxCell id="ydcLXZ2iIXeA3Rsq2fUr-9" value="" style="line;strokeWidth=1;fillColor=none;align=left;verticalAlign=middle;spacingTop=-1;spacingLeft=3;spacingRight=3;rotatable=0;labelPosition=right;points=[];portConstraint=eastwest;strokeColor=inherit;" parent="ydcLXZ2iIXeA3Rsq2fUr-8" vertex="1">
          <mxGeometry y="26" width="160" height="8" as="geometry" />
        </mxCell>
        <mxCell id="ydcLXZ2iIXeA3Rsq2fUr-10" value="DisplayFlight" style="swimlane;fontStyle=1;align=center;verticalAlign=top;childLayout=stackLayout;horizontal=1;startSize=26;horizontalStack=0;resizeParent=1;resizeParentMax=0;resizeLast=0;collapsible=1;marginBottom=0;whiteSpace=wrap;html=1;" parent="WIyWlLk6GJQsqaUBKTNV-1" vertex="1">
          <mxGeometry x="2206" y="356" width="160" height="34" as="geometry" />
        </mxCell>
        <mxCell id="ydcLXZ2iIXeA3Rsq2fUr-11" value="" style="line;strokeWidth=1;fillColor=none;align=left;verticalAlign=middle;spacingTop=-1;spacingLeft=3;spacingRight=3;rotatable=0;labelPosition=right;points=[];portConstraint=eastwest;strokeColor=inherit;" parent="ydcLXZ2iIXeA3Rsq2fUr-10" vertex="1">
          <mxGeometry y="26" width="160" height="8" as="geometry" />
        </mxCell>
        <mxCell id="ydcLXZ2iIXeA3Rsq2fUr-12" value="AircraftInfoFrame" style="swimlane;fontStyle=1;align=center;verticalAlign=top;childLayout=stackLayout;horizontal=1;startSize=26;horizontalStack=0;resizeParent=1;resizeParentMax=0;resizeLast=0;collapsible=1;marginBottom=0;whiteSpace=wrap;html=1;" parent="WIyWlLk6GJQsqaUBKTNV-1" vertex="1">
          <mxGeometry x="2206" y="486" width="160" height="34" as="geometry" />
        </mxCell>
        <mxCell id="ydcLXZ2iIXeA3Rsq2fUr-13" value="" style="line;strokeWidth=1;fillColor=none;align=left;verticalAlign=middle;spacingTop=-1;spacingLeft=3;spacingRight=3;rotatable=0;labelPosition=right;points=[];portConstraint=eastwest;strokeColor=inherit;" parent="ydcLXZ2iIXeA3Rsq2fUr-12" vertex="1">
          <mxGeometry y="26" width="160" height="8" as="geometry" />
        </mxCell>
        <mxCell id="ydcLXZ2iIXeA3Rsq2fUr-14" value="CrewInfoFrame" style="swimlane;fontStyle=1;align=center;verticalAlign=top;childLayout=stackLayout;horizontal=1;startSize=26;horizontalStack=0;resizeParent=1;resizeParentMax=0;resizeLast=0;collapsible=1;marginBottom=0;whiteSpace=wrap;html=1;" parent="WIyWlLk6GJQsqaUBKTNV-1" vertex="1">
          <mxGeometry x="2206" y="540" width="160" height="34" as="geometry" />
        </mxCell>
        <mxCell id="ydcLXZ2iIXeA3Rsq2fUr-15" value="" style="line;strokeWidth=1;fillColor=none;align=left;verticalAlign=middle;spacingTop=-1;spacingLeft=3;spacingRight=3;rotatable=0;labelPosition=right;points=[];portConstraint=eastwest;strokeColor=inherit;" parent="ydcLXZ2iIXeA3Rsq2fUr-14" vertex="1">
          <mxGeometry y="26" width="160" height="8" as="geometry" />
        </mxCell>
        <mxCell id="ydcLXZ2iIXeA3Rsq2fUr-18" value="AdminFlightInfoFrame" style="swimlane;fontStyle=1;align=center;verticalAlign=top;childLayout=stackLayout;horizontal=1;startSize=26;horizontalStack=0;resizeParent=1;resizeParentMax=0;resizeLast=0;collapsible=1;marginBottom=0;whiteSpace=wrap;html=1;" parent="WIyWlLk6GJQsqaUBKTNV-1" vertex="1">
          <mxGeometry x="2206" y="596" width="160" height="34" as="geometry" />
        </mxCell>
        <mxCell id="ydcLXZ2iIXeA3Rsq2fUr-19" value="" style="line;strokeWidth=1;fillColor=none;align=left;verticalAlign=middle;spacingTop=-1;spacingLeft=3;spacingRight=3;rotatable=0;labelPosition=right;points=[];portConstraint=eastwest;strokeColor=inherit;" parent="ydcLXZ2iIXeA3Rsq2fUr-18" vertex="1">
          <mxGeometry y="26" width="160" height="8" as="geometry" />
        </mxCell>
        <mxCell id="ydcLXZ2iIXeA3Rsq2fUr-25" value="" style="endArrow=open;html=1;rounded=0;endFill=0;entryX=0;entryY=0.5;entryDx=0;entryDy=0;" parent="WIyWlLk6GJQsqaUBKTNV-1" target="ydcLXZ2iIXeA3Rsq2fUr-14" edge="1">
          <mxGeometry width="50" height="50" relative="1" as="geometry">
            <mxPoint x="2136" y="556" as="sourcePoint" />
            <mxPoint x="2196" y="556" as="targetPoint" />
          </mxGeometry>
        </mxCell>
        <mxCell id="ydcLXZ2iIXeA3Rsq2fUr-26" value="" style="endArrow=open;html=1;rounded=0;entryX=-0.021;entryY=0.496;entryDx=0;entryDy=0;entryPerimeter=0;endFill=0;" parent="WIyWlLk6GJQsqaUBKTNV-1" target="ydcLXZ2iIXeA3Rsq2fUr-8" edge="1">
          <mxGeometry width="50" height="50" relative="1" as="geometry">
            <mxPoint x="2136" y="444" as="sourcePoint" />
            <mxPoint x="2196" y="444" as="targetPoint" />
          </mxGeometry>
        </mxCell>
        <mxCell id="ydcLXZ2iIXeA3Rsq2fUr-27" value="" style="endArrow=open;html=1;rounded=0;endFill=0;" parent="WIyWlLk6GJQsqaUBKTNV-1" edge="1">
          <mxGeometry width="50" height="50" relative="1" as="geometry">
            <mxPoint x="2136" y="516" as="sourcePoint" />
            <mxPoint x="2206" y="512.5" as="targetPoint" />
          </mxGeometry>
        </mxCell>
        <mxCell id="ydcLXZ2iIXeA3Rsq2fUr-28" value="" style="endArrow=open;html=1;rounded=0;endFill=0;" parent="WIyWlLk6GJQsqaUBKTNV-1" edge="1">
          <mxGeometry width="50" height="50" relative="1" as="geometry">
            <mxPoint x="2136" y="376" as="sourcePoint" />
            <mxPoint x="2206" y="372.5" as="targetPoint" />
          </mxGeometry>
        </mxCell>
        <mxCell id="ydcLXZ2iIXeA3Rsq2fUr-29" value="" style="endArrow=open;html=1;rounded=0;endFill=0;" parent="WIyWlLk6GJQsqaUBKTNV-1" edge="1">
          <mxGeometry width="50" height="50" relative="1" as="geometry">
            <mxPoint x="2136" y="306" as="sourcePoint" />
            <mxPoint x="2206" y="301" as="targetPoint" />
          </mxGeometry>
        </mxCell>
        <mxCell id="ydcLXZ2iIXeA3Rsq2fUr-32" value="" style="endArrow=block;dashed=1;endFill=0;endSize=12;html=1;rounded=0;entryX=0;entryY=0.5;entryDx=0;entryDy=0;exitX=1.03;exitY=0.194;exitDx=0;exitDy=0;exitPerimeter=0;" parent="WIyWlLk6GJQsqaUBKTNV-1" source="_wEa0kd7vMuWTm594oS8-96" target="bj67NkAzpCeHK8tnrzcI-17" edge="1">
          <mxGeometry width="160" relative="1" as="geometry">
            <mxPoint x="960" y="410" as="sourcePoint" />
            <mxPoint x="800" y="807" as="targetPoint" />
          </mxGeometry>
        </mxCell>
        <mxCell id="ydcLXZ2iIXeA3Rsq2fUr-33" value="" style="endArrow=block;dashed=1;endFill=0;endSize=12;html=1;rounded=0;entryX=0;entryY=1;entryDx=0;entryDy=0;exitX=0.796;exitY=-0.011;exitDx=0;exitDy=0;exitPerimeter=0;" parent="WIyWlLk6GJQsqaUBKTNV-1" source="_wEa0kd7vMuWTm594oS8-113" target="bj67NkAzpCeHK8tnrzcI-17" edge="1">
          <mxGeometry width="160" relative="1" as="geometry">
            <mxPoint x="1300" y="427" as="sourcePoint" />
            <mxPoint x="1400" y="401" as="targetPoint" />
          </mxGeometry>
        </mxCell>
        <mxCell id="ydcLXZ2iIXeA3Rsq2fUr-34" value="" style="endArrow=block;dashed=1;endFill=0;endSize=12;html=1;rounded=0;entryX=0.5;entryY=1;entryDx=0;entryDy=0;" parent="WIyWlLk6GJQsqaUBKTNV-1" target="bj67NkAzpCeHK8tnrzcI-17" edge="1">
          <mxGeometry width="160" relative="1" as="geometry">
            <mxPoint x="1470" y="440" as="sourcePoint" />
            <mxPoint x="1400" y="401" as="targetPoint" />
          </mxGeometry>
        </mxCell>
        <mxCell id="ydcLXZ2iIXeA3Rsq2fUr-35" value="" style="endArrow=block;dashed=1;endFill=0;endSize=12;html=1;rounded=0;entryX=1;entryY=1;entryDx=0;entryDy=0;exitX=0.454;exitY=-0.006;exitDx=0;exitDy=0;exitPerimeter=0;" parent="WIyWlLk6GJQsqaUBKTNV-1" source="_wEa0kd7vMuWTm594oS8-29" target="bj67NkAzpCeHK8tnrzcI-17" edge="1">
          <mxGeometry width="160" relative="1" as="geometry">
            <mxPoint x="1640.7200000000003" y="423.5659999999998" as="sourcePoint" />
            <mxPoint x="1480" y="401" as="targetPoint" />
          </mxGeometry>
        </mxCell>
        <mxCell id="ydcLXZ2iIXeA3Rsq2fUr-36" value="" style="endArrow=block;dashed=1;endFill=0;endSize=12;html=1;rounded=0;exitX=-0.004;exitY=0.773;exitDx=0;exitDy=0;exitPerimeter=0;entryX=1.02;entryY=0.152;entryDx=0;entryDy=0;entryPerimeter=0;" parent="WIyWlLk6GJQsqaUBKTNV-1" source="_wEa0kd7vMuWTm594oS8-10" target="bj67NkAzpCeHK8tnrzcI-17" edge="1">
          <mxGeometry width="160" relative="1" as="geometry">
            <mxPoint x="1939.2800000000002" y="422.56600000000003" as="sourcePoint" />
            <mxPoint x="1550" y="381" as="targetPoint" />
          </mxGeometry>
        </mxCell>
        <mxCell id="ydcLXZ2iIXeA3Rsq2fUr-42" value="" style="endArrow=classic;html=1;rounded=0;entryX=-0.011;entryY=0.06;entryDx=0;entryDy=0;entryPerimeter=0;exitX=1;exitY=1;exitDx=0;exitDy=0;" parent="WIyWlLk6GJQsqaUBKTNV-1" target="_wEa0kd7vMuWTm594oS8-96" edge="1" source="HMQuZuba5tz66sJMeMX4-16">
          <mxGeometry width="50" height="50" relative="1" as="geometry">
            <mxPoint x="1030" y="371" as="sourcePoint" />
            <mxPoint x="906.079999999999" y="409.93200000000024" as="targetPoint" />
          </mxGeometry>
        </mxCell>
        <mxCell id="ydcLXZ2iIXeA3Rsq2fUr-43" value="&amp;lt;&amp;lt;initiates&amp;gt;&amp;gt;" style="text;html=1;align=center;verticalAlign=middle;resizable=0;points=[];autosize=1;strokeColor=none;fillColor=none;" parent="WIyWlLk6GJQsqaUBKTNV-1" vertex="1">
          <mxGeometry x="780" y="298" width="90" height="30" as="geometry" />
        </mxCell>
        <mxCell id="ydcLXZ2iIXeA3Rsq2fUr-53" value="" style="endArrow=open;startArrow=circlePlus;endFill=0;startFill=0;endSize=8;html=1;rounded=0;exitX=0.75;exitY=1;exitDx=0;exitDy=0;" parent="WIyWlLk6GJQsqaUBKTNV-1" edge="1">
          <mxGeometry width="160" relative="1" as="geometry">
            <mxPoint x="890" y="499" as="sourcePoint" />
            <mxPoint x="770" y="540" as="targetPoint" />
            <Array as="points">
              <mxPoint x="890" y="538" />
            </Array>
          </mxGeometry>
        </mxCell>
        <mxCell id="ydcLXZ2iIXeA3Rsq2fUr-55" value="" style="endArrow=open;html=1;rounded=0;endFill=0;entryX=1;entryY=0.5;entryDx=0;entryDy=0;" parent="WIyWlLk6GJQsqaUBKTNV-1" target="ydcLXZ2iIXeA3Rsq2fUr-0" edge="1">
          <mxGeometry width="50" height="50" relative="1" as="geometry">
            <mxPoint x="890" y="540" as="sourcePoint" />
            <mxPoint x="790" y="599" as="targetPoint" />
            <Array as="points">
              <mxPoint x="890" y="600" />
            </Array>
          </mxGeometry>
        </mxCell>
        <mxCell id="ydcLXZ2iIXeA3Rsq2fUr-56" value="&amp;lt;&amp;lt;inner classes&amp;gt;&amp;gt;" style="text;html=1;align=center;verticalAlign=middle;resizable=0;points=[];autosize=1;strokeColor=none;fillColor=none;" parent="WIyWlLk6GJQsqaUBKTNV-1" vertex="1">
          <mxGeometry x="890" y="499" width="120" height="30" as="geometry" />
        </mxCell>
        <mxCell id="ydcLXZ2iIXeA3Rsq2fUr-58" value="" style="endArrow=open;startArrow=circlePlus;endFill=0;startFill=0;endSize=8;html=1;rounded=0;exitX=0.75;exitY=1;exitDx=0;exitDy=0;entryX=0;entryY=0.75;entryDx=0;entryDy=0;" parent="WIyWlLk6GJQsqaUBKTNV-1" target="ydcLXZ2iIXeA3Rsq2fUr-18" edge="1">
          <mxGeometry width="160" relative="1" as="geometry">
            <mxPoint x="2136" y="240" as="sourcePoint" />
            <mxPoint x="2136" y="620" as="targetPoint" />
            <Array as="points">
              <mxPoint x="2136" y="622" />
            </Array>
          </mxGeometry>
        </mxCell>
        <mxCell id="ydcLXZ2iIXeA3Rsq2fUr-61" value="&amp;lt;&amp;lt;inner classes&amp;gt;&amp;gt;" style="text;html=1;align=center;verticalAlign=middle;resizable=0;points=[];autosize=1;strokeColor=none;fillColor=none;" parent="WIyWlLk6GJQsqaUBKTNV-1" vertex="1">
          <mxGeometry x="2136" y="249" width="120" height="30" as="geometry" />
        </mxCell>
        <mxCell id="ydcLXZ2iIXeA3Rsq2fUr-75" value="ConfirmationFrame" style="swimlane;fontStyle=1;align=center;verticalAlign=top;childLayout=stackLayout;horizontal=1;startSize=26;horizontalStack=0;resizeParent=1;resizeParentMax=0;resizeLast=0;collapsible=1;marginBottom=0;whiteSpace=wrap;html=1;" parent="WIyWlLk6GJQsqaUBKTNV-1" vertex="1">
          <mxGeometry x="1840" y="917" width="160" height="34" as="geometry" />
        </mxCell>
        <mxCell id="ydcLXZ2iIXeA3Rsq2fUr-76" value="" style="line;strokeWidth=1;fillColor=none;align=left;verticalAlign=middle;spacingTop=-1;spacingLeft=3;spacingRight=3;rotatable=0;labelPosition=right;points=[];portConstraint=eastwest;strokeColor=inherit;" parent="ydcLXZ2iIXeA3Rsq2fUr-75" vertex="1">
          <mxGeometry y="26" width="160" height="8" as="geometry" />
        </mxCell>
        <mxCell id="ydcLXZ2iIXeA3Rsq2fUr-82" value="&amp;lt;&amp;lt;inner classes&amp;gt;&amp;gt;" style="text;html=1;align=center;verticalAlign=middle;resizable=0;points=[];autosize=1;strokeColor=none;fillColor=none;" parent="WIyWlLk6GJQsqaUBKTNV-1" vertex="1">
          <mxGeometry x="1810" y="801" width="120" height="30" as="geometry" />
        </mxCell>
        <mxCell id="_wEa0kd7vMuWTm594oS8-3" value="" style="endArrow=block;dashed=1;endFill=0;endSize=12;html=1;rounded=0;entryX=0.966;entryY=-0.044;entryDx=0;entryDy=0;entryPerimeter=0;" edge="1" parent="WIyWlLk6GJQsqaUBKTNV-1" source="_wEa0kd7vMuWTm594oS8-21" target="bj67NkAzpCeHK8tnrzcI-17">
          <mxGeometry width="160" relative="1" as="geometry">
            <mxPoint x="1730" y="348" as="sourcePoint" />
            <mxPoint x="1560" y="401" as="targetPoint" />
          </mxGeometry>
        </mxCell>
        <mxCell id="_wEa0kd7vMuWTm594oS8-6" value="&lt;p style=&quot;margin:0px;margin-top:4px;text-align:center;&quot;&gt;&lt;b&gt;Admin&lt;/b&gt;&lt;/p&gt;&lt;hr size=&quot;1&quot;&gt;&lt;p style=&quot;margin:0px;margin-left:4px;&quot;&gt;&lt;br&gt;&lt;/p&gt;&lt;hr size=&quot;1&quot;&gt;&lt;p style=&quot;margin:0px;margin-left:4px;&quot;&gt;+ flightExists(flightID:int): Flight&lt;/p&gt;" style="verticalAlign=top;align=left;overflow=fill;fontSize=12;fontFamily=Helvetica;html=1;whiteSpace=wrap;" vertex="1" parent="WIyWlLk6GJQsqaUBKTNV-1">
          <mxGeometry x="-350" y="940" width="170" height="90" as="geometry" />
        </mxCell>
        <mxCell id="_wEa0kd7vMuWTm594oS8-7" value="AdminFrame" style="swimlane;fontStyle=1;align=center;verticalAlign=top;childLayout=stackLayout;horizontal=1;startSize=26;horizontalStack=0;resizeParent=1;resizeParentMax=0;resizeLast=0;collapsible=1;marginBottom=0;whiteSpace=wrap;html=1;" vertex="1" parent="WIyWlLk6GJQsqaUBKTNV-1">
          <mxGeometry x="1910" y="-40" width="390" height="280" as="geometry" />
        </mxCell>
        <mxCell id="_wEa0kd7vMuWTm594oS8-8" value="- &lt;u&gt;MAIN_FONT: Font(ReadOnly)&lt;br&gt;&lt;/u&gt;- &lt;u&gt;BUTTON&lt;/u&gt;&lt;span style=&quot;border-color: var(--border-color);&quot;&gt;&lt;u&gt;_FONT: Font(ReadOnly)&lt;/u&gt;&lt;br&gt;-&lt;/span&gt;&lt;span style=&quot;border-color: var(--border-color);&quot;&gt;&lt;u&gt;&amp;nbsp;GROUP&lt;/u&gt;&lt;span style=&quot;border-color: var(--border-color);&quot;&gt;&lt;u&gt;_FONT: Font(ReadOnly)&lt;/u&gt;&lt;br&gt;-&lt;/span&gt;&lt;span style=&quot;border-color: var(--border-color);&quot;&gt;&lt;u&gt;&amp;nbsp;INPUT&lt;/u&gt;&lt;span style=&quot;border-color: var(--border-color);&quot;&gt;&lt;u&gt;_FONT: Font(ReadOnly)&lt;/u&gt;&lt;br&gt;-&lt;span style=&quot;border-color: var(--border-color);&quot;&gt;&amp;nbsp;&lt;/span&gt;&lt;u style=&quot;text-decoration-line: underline; border-color: var(--border-color);&quot;&gt;BUTTON_COLOR&lt;u style=&quot;border-color: var(--border-color);&quot;&gt;: Color(ReadOnly)&lt;br&gt;&lt;/u&gt;&lt;/u&gt;- &lt;u&gt;BUTTON_TEXT_COLOR&lt;/u&gt;&lt;u style=&quot;text-decoration-line: underline; border-color: var(--border-color);&quot;&gt;: Color(ReadOnly)&lt;br&gt;&lt;/u&gt;- &lt;u&gt;BACKGROUND&lt;/u&gt;&lt;u style=&quot;border-color: var(--border-color);&quot;&gt;_COLOR&lt;u style=&quot;border-color: var(--border-color);&quot;&gt;: Color(ReadOnly)&lt;br&gt;&lt;/u&gt;&lt;/u&gt;-&lt;span style=&quot;border-color: var(--border-color);&quot;&gt;&lt;u style=&quot;border-color: var(--border-color);&quot;&gt;&amp;nbsp;INPUT&lt;/u&gt;&lt;span style=&quot;border-color: var(--border-color);&quot;&gt;&lt;u style=&quot;border-color: var(--border-color);&quot;&gt;_COLOR: Color(ReadOnly)&lt;/u&gt;&lt;/span&gt;&lt;/span&gt;&lt;br style=&quot;border-color: var(--border-color);&quot;&gt;&lt;/span&gt;&lt;/span&gt;&lt;/span&gt;" style="text;strokeColor=none;fillColor=none;align=left;verticalAlign=top;spacingLeft=4;spacingRight=4;overflow=hidden;rotatable=0;points=[[0,0.5],[1,0.5]];portConstraint=eastwest;whiteSpace=wrap;html=1;" vertex="1" parent="_wEa0kd7vMuWTm594oS8-7">
          <mxGeometry y="26" width="390" height="124" as="geometry" />
        </mxCell>
        <mxCell id="_wEa0kd7vMuWTm594oS8-9" value="" style="line;strokeWidth=1;fillColor=none;align=left;verticalAlign=middle;spacingTop=-1;spacingLeft=3;spacingRight=3;rotatable=0;labelPosition=right;points=[];portConstraint=eastwest;strokeColor=inherit;" vertex="1" parent="_wEa0kd7vMuWTm594oS8-7">
          <mxGeometry y="150" width="390" height="8" as="geometry" />
        </mxCell>
        <mxCell id="_wEa0kd7vMuWTm594oS8-10" value="- createStyledButton(text:String): JButton&lt;br&gt;- removeAirCraftPanel():void&lt;br&gt;- addAirCraftPanel():void&lt;br&gt;- createLabelAndTextField(String labelText, JtextField textField):JPanel&lt;br&gt;- updateCrewPanel():void&lt;br&gt;- browseFlightPanel():void&lt;br&gt;- crewListPanel():void&lt;br&gt;" style="text;strokeColor=none;fillColor=none;align=left;verticalAlign=top;spacingLeft=4;spacingRight=4;overflow=hidden;rotatable=0;points=[[0,0.5],[1,0.5]];portConstraint=eastwest;whiteSpace=wrap;html=1;" vertex="1" parent="_wEa0kd7vMuWTm594oS8-7">
          <mxGeometry y="158" width="390" height="122" as="geometry" />
        </mxCell>
        <mxCell id="_wEa0kd7vMuWTm594oS8-11" value="&lt;p style=&quot;margin:0px;margin-top:4px;text-align:center;&quot;&gt;&lt;b&gt;Agent&lt;/b&gt;&lt;/p&gt;&lt;hr size=&quot;1&quot;&gt;&lt;p style=&quot;margin:0px;margin-left:4px;&quot;&gt;&lt;br&gt;&lt;/p&gt;&lt;hr size=&quot;1&quot;&gt;&lt;p style=&quot;margin:0px;margin-left:4px;&quot;&gt;+ getPassengers(flight:Flight): Hasmap&amp;lt;String,String&amp;gt;&lt;/p&gt;" style="verticalAlign=top;align=left;overflow=fill;fontSize=12;fontFamily=Helvetica;html=1;whiteSpace=wrap;" vertex="1" parent="WIyWlLk6GJQsqaUBKTNV-1">
          <mxGeometry x="-440" y="821" width="300" height="90" as="geometry" />
        </mxCell>
        <mxCell id="_wEa0kd7vMuWTm594oS8-13" value="Aircraft" style="swimlane;fontStyle=1;align=center;verticalAlign=top;childLayout=stackLayout;horizontal=1;startSize=26;horizontalStack=0;resizeParent=1;resizeParentMax=0;resizeLast=0;collapsible=1;marginBottom=0;whiteSpace=wrap;html=1;" vertex="1" parent="WIyWlLk6GJQsqaUBKTNV-1">
          <mxGeometry x="110" y="-300" width="250" height="190" as="geometry" />
        </mxCell>
        <mxCell id="_wEa0kd7vMuWTm594oS8-14" value="~&amp;nbsp;AIRCRAFTID:int(ReadOnly)&lt;br&gt;~ AIRCRAFTMODEL&lt;span style=&quot;border-color: var(--border-color);&quot;&gt;: String(ReadOnly)&lt;br&gt;&lt;/span&gt;&lt;span style=&quot;border-color: var(--border-color);&quot;&gt;~ numEconomySeats&lt;span style=&quot;border-color: var(--border-color);&quot;&gt;: int&lt;br&gt;&lt;/span&gt;&lt;span style=&quot;border-color: var(--border-color);&quot;&gt;~ numConfortSeats&lt;span style=&quot;border-color: var(--border-color);&quot;&gt;: int&lt;br&gt;&lt;span style=&quot;border-color: var(--border-color);&quot;&gt;~ numBusinessSeats&lt;/span&gt;&lt;span style=&quot;border-color: var(--border-color);&quot;&gt;&lt;span style=&quot;border-color: var(--border-color);&quot;&gt;: int&lt;br&gt;&lt;/span&gt;&lt;/span&gt;- economyPrice&lt;span style=&quot;border-color: var(--border-color);&quot;&gt;: double&lt;br&gt;&lt;/span&gt;- businessPrice&lt;span style=&quot;border-color: var(--border-color);&quot;&gt;&lt;span style=&quot;border-color: var(--border-color);&quot;&gt;: double&lt;br&gt;&lt;/span&gt;&lt;/span&gt;&lt;span style=&quot;border-color: var(--border-color);&quot;&gt;&lt;span style=&quot;border-color: var(--border-color);&quot;&gt;~ inUse&lt;/span&gt;&lt;span style=&quot;border-color: var(--border-color);&quot;&gt;&lt;span style=&quot;border-color: var(--border-color);&quot;&gt;: boolean&lt;/span&gt;&lt;/span&gt;&lt;/span&gt;&lt;br style=&quot;border-color: var(--border-color);&quot;&gt;&lt;/span&gt;&lt;/span&gt;&lt;/span&gt;" style="text;strokeColor=none;fillColor=none;align=left;verticalAlign=top;spacingLeft=4;spacingRight=4;overflow=hidden;rotatable=0;points=[[0,0.5],[1,0.5]];portConstraint=eastwest;whiteSpace=wrap;html=1;" vertex="1" parent="_wEa0kd7vMuWTm594oS8-13">
          <mxGeometry y="26" width="250" height="124" as="geometry" />
        </mxCell>
        <mxCell id="_wEa0kd7vMuWTm594oS8-15" value="" style="line;strokeWidth=1;fillColor=none;align=left;verticalAlign=middle;spacingTop=-1;spacingLeft=3;spacingRight=3;rotatable=0;labelPosition=right;points=[];portConstraint=eastwest;strokeColor=inherit;" vertex="1" parent="_wEa0kd7vMuWTm594oS8-13">
          <mxGeometry y="150" width="250" height="8" as="geometry" />
        </mxCell>
        <mxCell id="_wEa0kd7vMuWTm594oS8-16" value="&amp;lt;&amp;lt;,Constructor,Getters, and Setters&amp;gt;&amp;gt;" style="text;strokeColor=none;fillColor=none;align=left;verticalAlign=top;spacingLeft=4;spacingRight=4;overflow=hidden;rotatable=0;points=[[0,0.5],[1,0.5]];portConstraint=eastwest;whiteSpace=wrap;html=1;" vertex="1" parent="_wEa0kd7vMuWTm594oS8-13">
          <mxGeometry y="158" width="250" height="32" as="geometry" />
        </mxCell>
        <mxCell id="_wEa0kd7vMuWTm594oS8-18" value="AirlineFrame" style="swimlane;fontStyle=1;align=center;verticalAlign=top;childLayout=stackLayout;horizontal=1;startSize=26;horizontalStack=0;resizeParent=1;resizeParentMax=0;resizeLast=0;collapsible=1;marginBottom=0;whiteSpace=wrap;html=1;" vertex="1" parent="WIyWlLk6GJQsqaUBKTNV-1">
          <mxGeometry x="1470" y="82" width="280" height="190" as="geometry" />
        </mxCell>
        <mxCell id="_wEa0kd7vMuWTm594oS8-19" value="- &lt;u&gt;MAIN_FONT: Font(ReadOnly)&lt;br&gt;&lt;/u&gt;- &lt;u&gt;BUTTON&lt;/u&gt;&lt;span style=&quot;border-color: var(--border-color);&quot;&gt;&lt;u&gt;_FONT: Font(ReadOnly)&lt;/u&gt;&lt;br&gt;-&lt;/span&gt;&lt;span style=&quot;border-color: var(--border-color);&quot;&gt;&lt;u&gt;&amp;nbsp;GROUP&lt;/u&gt;&lt;span style=&quot;border-color: var(--border-color);&quot;&gt;&lt;u&gt;_FONT: Font(ReadOnly)&lt;/u&gt;&lt;br&gt;-&lt;/span&gt;&lt;span style=&quot;border-color: var(--border-color);&quot;&gt;&lt;u&gt;&amp;nbsp;INPUT&lt;/u&gt;&lt;span style=&quot;border-color: var(--border-color);&quot;&gt;&lt;u&gt;_FONT: Font(ReadOnly)&lt;/u&gt;&lt;br&gt;-&lt;span style=&quot;border-color: var(--border-color);&quot;&gt;&amp;nbsp;&lt;/span&gt;&lt;u style=&quot;text-decoration-line: underline; border-color: var(--border-color);&quot;&gt;BUTTON_COLOR&lt;u style=&quot;border-color: var(--border-color);&quot;&gt;: Color(ReadOnly)&lt;br&gt;&lt;/u&gt;&lt;/u&gt;- &lt;u&gt;BUTTON_TEXT_COLOR&lt;/u&gt;&lt;u style=&quot;text-decoration-line: underline; border-color: var(--border-color);&quot;&gt;: Color(ReadOnly)&lt;br&gt;&lt;/u&gt;- &lt;u&gt;BACKGROUND&lt;/u&gt;&lt;u style=&quot;border-color: var(--border-color);&quot;&gt;_COLOR&lt;u style=&quot;border-color: var(--border-color);&quot;&gt;: Color(ReadOnly)&lt;br&gt;&lt;/u&gt;&lt;/u&gt;-&lt;span style=&quot;border-color: var(--border-color);&quot;&gt;&lt;u style=&quot;border-color: var(--border-color);&quot;&gt;&amp;nbsp;INPUT&lt;/u&gt;&lt;span style=&quot;border-color: var(--border-color);&quot;&gt;&lt;u style=&quot;border-color: var(--border-color);&quot;&gt;_COLOR: Color(ReadOnly)&lt;/u&gt;&lt;/span&gt;&lt;/span&gt;&lt;br style=&quot;border-color: var(--border-color);&quot;&gt;&lt;/span&gt;&lt;/span&gt;&lt;/span&gt;" style="text;strokeColor=none;fillColor=none;align=left;verticalAlign=top;spacingLeft=4;spacingRight=4;overflow=hidden;rotatable=0;points=[[0,0.5],[1,0.5]];portConstraint=eastwest;whiteSpace=wrap;html=1;" vertex="1" parent="_wEa0kd7vMuWTm594oS8-18">
          <mxGeometry y="26" width="280" height="124" as="geometry" />
        </mxCell>
        <mxCell id="_wEa0kd7vMuWTm594oS8-20" value="" style="line;strokeWidth=1;fillColor=none;align=left;verticalAlign=middle;spacingTop=-1;spacingLeft=3;spacingRight=3;rotatable=0;labelPosition=right;points=[];portConstraint=eastwest;strokeColor=inherit;" vertex="1" parent="_wEa0kd7vMuWTm594oS8-18">
          <mxGeometry y="150" width="280" height="8" as="geometry" />
        </mxCell>
        <mxCell id="_wEa0kd7vMuWTm594oS8-21" value="- createStyledButton(text:String): JButton&lt;br&gt;" style="text;strokeColor=none;fillColor=none;align=left;verticalAlign=top;spacingLeft=4;spacingRight=4;overflow=hidden;rotatable=0;points=[[0,0.5],[1,0.5]];portConstraint=eastwest;whiteSpace=wrap;html=1;" vertex="1" parent="_wEa0kd7vMuWTm594oS8-18">
          <mxGeometry y="158" width="280" height="32" as="geometry" />
        </mxCell>
        <mxCell id="_wEa0kd7vMuWTm594oS8-22" style="edgeStyle=orthogonalEdgeStyle;rounded=0;orthogonalLoop=1;jettySize=auto;html=1;exitX=1;exitY=0.5;exitDx=0;exitDy=0;" edge="1" parent="_wEa0kd7vMuWTm594oS8-18" source="_wEa0kd7vMuWTm594oS8-19" target="_wEa0kd7vMuWTm594oS8-19">
          <mxGeometry relative="1" as="geometry" />
        </mxCell>
        <mxCell id="_wEa0kd7vMuWTm594oS8-29" value="BookingFrame" style="swimlane;fontStyle=1;align=center;verticalAlign=top;childLayout=stackLayout;horizontal=1;startSize=26;horizontalStack=0;resizeParent=1;resizeParentMax=0;resizeLast=0;collapsible=1;marginBottom=0;whiteSpace=wrap;html=1;" vertex="1" parent="WIyWlLk6GJQsqaUBKTNV-1">
          <mxGeometry x="1794" y="461" width="240" height="340" as="geometry" />
        </mxCell>
        <mxCell id="_wEa0kd7vMuWTm594oS8-30" value="&lt;span style=&quot;border-color: var(--border-color);&quot;&gt;&lt;span style=&quot;border-color: var(--border-color);&quot;&gt;&lt;span style=&quot;border-color: var(--border-color);&quot;&gt;- economyClassButton: JRadioButton&lt;br&gt;- comfortClassButton: JRadioButton&lt;br&gt;- businessClassButton: JRadioButton&lt;br&gt;- insuranceCheckBox: JCheckBox&lt;br&gt;- totalPriceLabel: JLabel&lt;br&gt;- username: String&lt;br&gt;- economySeats: int&lt;br&gt;- comfortSeats: int&lt;br&gt;- businessSeats: int&lt;br&gt;- economyPrice: int&lt;br&gt;- comfortPrice: double&lt;br&gt;- businessPrice: double&lt;br&gt;- insurancePrice: double&lt;br&gt;- totalPrice: double&lt;br style=&quot;border-color: var(--border-color);&quot;&gt;&lt;/span&gt;&lt;/span&gt;&lt;/span&gt;" style="text;strokeColor=none;fillColor=none;align=left;verticalAlign=top;spacingLeft=4;spacingRight=4;overflow=hidden;rotatable=0;points=[[0,0.5],[1,0.5]];portConstraint=eastwest;whiteSpace=wrap;html=1;" vertex="1" parent="_wEa0kd7vMuWTm594oS8-29">
          <mxGeometry y="26" width="240" height="214" as="geometry" />
        </mxCell>
        <mxCell id="_wEa0kd7vMuWTm594oS8-31" value="" style="line;strokeWidth=1;fillColor=none;align=left;verticalAlign=middle;spacingTop=-1;spacingLeft=3;spacingRight=3;rotatable=0;labelPosition=right;points=[];portConstraint=eastwest;strokeColor=inherit;" vertex="1" parent="_wEa0kd7vMuWTm594oS8-29">
          <mxGeometry y="240" width="240" height="8" as="geometry" />
        </mxCell>
        <mxCell id="_wEa0kd7vMuWTm594oS8-32" value="+ isEconomyClassSelected(): boolean&lt;br&gt;+ isComfortClassSelected(): boolean&lt;br&gt;+ isBusinessClassSelected(): boolean&lt;br&gt;+ isInsuranceSelected(): boolean" style="text;strokeColor=none;fillColor=none;align=left;verticalAlign=top;spacingLeft=4;spacingRight=4;overflow=hidden;rotatable=0;points=[[0,0.5],[1,0.5]];portConstraint=eastwest;whiteSpace=wrap;html=1;" vertex="1" parent="_wEa0kd7vMuWTm594oS8-29">
          <mxGeometry y="248" width="240" height="92" as="geometry" />
        </mxCell>
        <mxCell id="_wEa0kd7vMuWTm594oS8-33" style="edgeStyle=orthogonalEdgeStyle;rounded=0;orthogonalLoop=1;jettySize=auto;html=1;exitX=1;exitY=0.5;exitDx=0;exitDy=0;" edge="1" parent="_wEa0kd7vMuWTm594oS8-29">
          <mxGeometry relative="1" as="geometry">
            <mxPoint x="496" y="133.00000000000045" as="sourcePoint" />
            <mxPoint x="496" y="133.00000000000045" as="targetPoint" />
          </mxGeometry>
        </mxCell>
        <mxCell id="_wEa0kd7vMuWTm594oS8-40" value="SeatSelectionFrame" style="swimlane;fontStyle=1;align=center;verticalAlign=top;childLayout=stackLayout;horizontal=1;startSize=26;horizontalStack=0;resizeParent=1;resizeParentMax=0;resizeLast=0;collapsible=1;marginBottom=0;whiteSpace=wrap;html=1;" vertex="1" parent="WIyWlLk6GJQsqaUBKTNV-1">
          <mxGeometry x="1560" y="810" width="230" height="210" as="geometry" />
        </mxCell>
        <mxCell id="_wEa0kd7vMuWTm594oS8-41" value="&lt;span style=&quot;border-color: var(--border-color);&quot;&gt;&lt;span style=&quot;border-color: var(--border-color);&quot;&gt;&lt;span style=&quot;border-color: var(--border-color);&quot;&gt;- flightInfoFrame: FlightInfoFrame&lt;br&gt;- bookingFrame: BookingFrame&lt;br&gt;- totalPrice: double&lt;br&gt;- confirm Button: JButton&lt;br&gt;- seatSelectedButton: JButton&lt;br style=&quot;border-color: var(--border-color);&quot;&gt;&lt;/span&gt;&lt;/span&gt;&lt;/span&gt;" style="text;strokeColor=none;fillColor=none;align=left;verticalAlign=top;spacingLeft=4;spacingRight=4;overflow=hidden;rotatable=0;points=[[0,0.5],[1,0.5]];portConstraint=eastwest;whiteSpace=wrap;html=1;" vertex="1" parent="_wEa0kd7vMuWTm594oS8-40">
          <mxGeometry y="26" width="230" height="84" as="geometry" />
        </mxCell>
        <mxCell id="_wEa0kd7vMuWTm594oS8-42" value="" style="line;strokeWidth=1;fillColor=none;align=left;verticalAlign=middle;spacingTop=-1;spacingLeft=3;spacingRight=3;rotatable=0;labelPosition=right;points=[];portConstraint=eastwest;strokeColor=inherit;" vertex="1" parent="_wEa0kd7vMuWTm594oS8-40">
          <mxGeometry y="110" width="230" height="8" as="geometry" />
        </mxCell>
        <mxCell id="_wEa0kd7vMuWTm594oS8-43" value="+ getSelectedSeatNumber(): String&lt;br&gt;+ createSeatButton(seatText:String):void&lt;br&gt;" style="text;strokeColor=none;fillColor=none;align=left;verticalAlign=top;spacingLeft=4;spacingRight=4;overflow=hidden;rotatable=0;points=[[0,0.5],[1,0.5]];portConstraint=eastwest;whiteSpace=wrap;html=1;" vertex="1" parent="_wEa0kd7vMuWTm594oS8-40">
          <mxGeometry y="118" width="230" height="92" as="geometry" />
        </mxCell>
        <mxCell id="_wEa0kd7vMuWTm594oS8-44" style="edgeStyle=orthogonalEdgeStyle;rounded=0;orthogonalLoop=1;jettySize=auto;html=1;exitX=1;exitY=0.5;exitDx=0;exitDy=0;" edge="1" parent="_wEa0kd7vMuWTm594oS8-40">
          <mxGeometry relative="1" as="geometry">
            <mxPoint x="450" y="89.00000000000045" as="sourcePoint" />
            <mxPoint x="450" y="89.00000000000045" as="targetPoint" />
          </mxGeometry>
        </mxCell>
        <mxCell id="_wEa0kd7vMuWTm594oS8-50" value="" style="endArrow=open;startArrow=circlePlus;endFill=0;startFill=0;endSize=8;html=1;rounded=0;exitX=0.75;exitY=1;exitDx=0;exitDy=0;" edge="1" parent="WIyWlLk6GJQsqaUBKTNV-1">
          <mxGeometry width="160" relative="1" as="geometry">
            <mxPoint x="1810" y="801" as="sourcePoint" />
            <mxPoint x="1840" y="1121" as="targetPoint" />
            <Array as="points">
              <mxPoint x="1810" y="1121" />
            </Array>
          </mxGeometry>
        </mxCell>
        <mxCell id="_wEa0kd7vMuWTm594oS8-52" value="CompanionSelectionFrame" style="swimlane;fontStyle=1;align=center;verticalAlign=top;childLayout=stackLayout;horizontal=1;startSize=26;horizontalStack=0;resizeParent=1;resizeParentMax=0;resizeLast=0;collapsible=1;marginBottom=0;whiteSpace=wrap;html=1;" vertex="1" parent="WIyWlLk6GJQsqaUBKTNV-1">
          <mxGeometry x="1840" y="961" width="280" height="230" as="geometry" />
        </mxCell>
        <mxCell id="_wEa0kd7vMuWTm594oS8-53" value="&lt;span style=&quot;border-color: var(--border-color);&quot;&gt;&lt;span style=&quot;border-color: var(--border-color);&quot;&gt;&lt;span style=&quot;border-color: var(--border-color);&quot;&gt;- flightInfoFrame: FlightInfoFrame&lt;br&gt;- bookingFrame: BookingFrame&lt;br&gt;- totalPrice: double&lt;br&gt;- confirm Button: JButton&lt;br&gt;- seatSelectedButton: JButton&lt;br&gt;- seatType: String&lt;br style=&quot;border-color: var(--border-color);&quot;&gt;&lt;/span&gt;&lt;/span&gt;&lt;/span&gt;" style="text;strokeColor=none;fillColor=none;align=left;verticalAlign=top;spacingLeft=4;spacingRight=4;overflow=hidden;rotatable=0;points=[[0,0.5],[1,0.5]];portConstraint=eastwest;whiteSpace=wrap;html=1;" vertex="1" parent="_wEa0kd7vMuWTm594oS8-52">
          <mxGeometry y="26" width="280" height="104" as="geometry" />
        </mxCell>
        <mxCell id="_wEa0kd7vMuWTm594oS8-54" value="" style="line;strokeWidth=1;fillColor=none;align=left;verticalAlign=middle;spacingTop=-1;spacingLeft=3;spacingRight=3;rotatable=0;labelPosition=right;points=[];portConstraint=eastwest;strokeColor=inherit;" vertex="1" parent="_wEa0kd7vMuWTm594oS8-52">
          <mxGeometry y="130" width="280" height="8" as="geometry" />
        </mxCell>
        <mxCell id="_wEa0kd7vMuWTm594oS8-55" value="+ getSelectedSeatNumber(): String&lt;br&gt;+ makeSeatUnavailable(seatNumber: String):void&lt;br&gt;+ createSeatButton(seatText:String):void" style="text;strokeColor=none;fillColor=none;align=left;verticalAlign=top;spacingLeft=4;spacingRight=4;overflow=hidden;rotatable=0;points=[[0,0.5],[1,0.5]];portConstraint=eastwest;whiteSpace=wrap;html=1;" vertex="1" parent="_wEa0kd7vMuWTm594oS8-52">
          <mxGeometry y="138" width="280" height="92" as="geometry" />
        </mxCell>
        <mxCell id="_wEa0kd7vMuWTm594oS8-56" style="edgeStyle=orthogonalEdgeStyle;rounded=0;orthogonalLoop=1;jettySize=auto;html=1;exitX=1;exitY=0.5;exitDx=0;exitDy=0;" edge="1" parent="_wEa0kd7vMuWTm594oS8-52" source="_wEa0kd7vMuWTm594oS8-53" target="_wEa0kd7vMuWTm594oS8-53">
          <mxGeometry relative="1" as="geometry" />
        </mxCell>
        <mxCell id="_wEa0kd7vMuWTm594oS8-57" value="PaymentFrame" style="swimlane;fontStyle=1;align=center;verticalAlign=top;childLayout=stackLayout;horizontal=1;startSize=26;horizontalStack=0;resizeParent=1;resizeParentMax=0;resizeLast=0;collapsible=1;marginBottom=0;whiteSpace=wrap;html=1;" vertex="1" parent="WIyWlLk6GJQsqaUBKTNV-1">
          <mxGeometry x="1840" y="823" width="200" height="78" as="geometry" />
        </mxCell>
        <mxCell id="_wEa0kd7vMuWTm594oS8-58" value="&lt;span style=&quot;border-color: var(--border-color);&quot;&gt;&lt;span style=&quot;border-color: var(--border-color);&quot;&gt;&lt;span style=&quot;border-color: var(--border-color);&quot;&gt;- flightInfoFrame: FlightInfoFrame&lt;br&gt;- bookingFrame: BookingFrame&lt;br style=&quot;border-color: var(--border-color);&quot;&gt;&lt;/span&gt;&lt;/span&gt;&lt;/span&gt;" style="text;strokeColor=none;fillColor=none;align=left;verticalAlign=top;spacingLeft=4;spacingRight=4;overflow=hidden;rotatable=0;points=[[0,0.5],[1,0.5]];portConstraint=eastwest;whiteSpace=wrap;html=1;" vertex="1" parent="_wEa0kd7vMuWTm594oS8-57">
          <mxGeometry y="26" width="200" height="44" as="geometry" />
        </mxCell>
        <mxCell id="_wEa0kd7vMuWTm594oS8-59" value="" style="line;strokeWidth=1;fillColor=none;align=left;verticalAlign=middle;spacingTop=-1;spacingLeft=3;spacingRight=3;rotatable=0;labelPosition=right;points=[];portConstraint=eastwest;strokeColor=inherit;" vertex="1" parent="_wEa0kd7vMuWTm594oS8-57">
          <mxGeometry y="70" width="200" height="8" as="geometry" />
        </mxCell>
        <mxCell id="_wEa0kd7vMuWTm594oS8-61" style="edgeStyle=orthogonalEdgeStyle;rounded=0;orthogonalLoop=1;jettySize=auto;html=1;exitX=1;exitY=0.5;exitDx=0;exitDy=0;" edge="1" parent="_wEa0kd7vMuWTm594oS8-57" source="_wEa0kd7vMuWTm594oS8-58" target="_wEa0kd7vMuWTm594oS8-58">
          <mxGeometry relative="1" as="geometry" />
        </mxCell>
        <mxCell id="_wEa0kd7vMuWTm594oS8-67" value="" style="endArrow=open;html=1;rounded=0;endFill=0;" edge="1" parent="WIyWlLk6GJQsqaUBKTNV-1">
          <mxGeometry width="50" height="50" relative="1" as="geometry">
            <mxPoint x="1810" y="851" as="sourcePoint" />
            <mxPoint x="1840" y="851" as="targetPoint" />
          </mxGeometry>
        </mxCell>
        <mxCell id="_wEa0kd7vMuWTm594oS8-68" value="" style="endArrow=open;html=1;rounded=0;endFill=0;" edge="1" parent="WIyWlLk6GJQsqaUBKTNV-1">
          <mxGeometry width="50" height="50" relative="1" as="geometry">
            <mxPoint x="1810" y="933.6399999999999" as="sourcePoint" />
            <mxPoint x="1840" y="933.6399999999999" as="targetPoint" />
          </mxGeometry>
        </mxCell>
        <mxCell id="_wEa0kd7vMuWTm594oS8-69" value="" style="endArrow=open;html=1;rounded=0;endFill=0;" edge="1" parent="WIyWlLk6GJQsqaUBKTNV-1">
          <mxGeometry width="50" height="50" relative="1" as="geometry">
            <mxPoint x="1810" y="861" as="sourcePoint" />
            <mxPoint x="1790" y="861" as="targetPoint" />
          </mxGeometry>
        </mxCell>
        <mxCell id="_wEa0kd7vMuWTm594oS8-70" value="CrediCard" style="swimlane;fontStyle=1;align=center;verticalAlign=top;childLayout=stackLayout;horizontal=1;startSize=26;horizontalStack=0;resizeParent=1;resizeParentMax=0;resizeLast=0;collapsible=1;marginBottom=0;whiteSpace=wrap;html=1;" vertex="1" parent="WIyWlLk6GJQsqaUBKTNV-1">
          <mxGeometry x="200" y="1060" width="280" height="210" as="geometry" />
        </mxCell>
        <mxCell id="_wEa0kd7vMuWTm594oS8-71" value="&lt;span style=&quot;border-color: var(--border-color);&quot;&gt;&lt;span style=&quot;border-color: var(--border-color);&quot;&gt;&lt;span style=&quot;border-color: var(--border-color);&quot;&gt;~ CARDNUMBER: String&lt;br&gt;~ CARDHOLDERNAME: String(ReadOnly)&lt;br&gt;~ EXPIRY: int(ReadOnly)&lt;br&gt;~ CVV: int(ReadOnly)&lt;br style=&quot;border-color: var(--border-color);&quot;&gt;&lt;/span&gt;&lt;/span&gt;&lt;/span&gt;" style="text;strokeColor=none;fillColor=none;align=left;verticalAlign=top;spacingLeft=4;spacingRight=4;overflow=hidden;rotatable=0;points=[[0,0.5],[1,0.5]];portConstraint=eastwest;whiteSpace=wrap;html=1;" vertex="1" parent="_wEa0kd7vMuWTm594oS8-70">
          <mxGeometry y="26" width="280" height="84" as="geometry" />
        </mxCell>
        <mxCell id="_wEa0kd7vMuWTm594oS8-72" value="" style="line;strokeWidth=1;fillColor=none;align=left;verticalAlign=middle;spacingTop=-1;spacingLeft=3;spacingRight=3;rotatable=0;labelPosition=right;points=[];portConstraint=eastwest;strokeColor=inherit;" vertex="1" parent="_wEa0kd7vMuWTm594oS8-70">
          <mxGeometry y="110" width="280" height="8" as="geometry" />
        </mxCell>
        <mxCell id="_wEa0kd7vMuWTm594oS8-73" value="&amp;lt;&amp;lt;Constructor, Getters, and Setters&amp;gt;&amp;gt;" style="text;strokeColor=none;fillColor=none;align=left;verticalAlign=top;spacingLeft=4;spacingRight=4;overflow=hidden;rotatable=0;points=[[0,0.5],[1,0.5]];portConstraint=eastwest;whiteSpace=wrap;html=1;" vertex="1" parent="_wEa0kd7vMuWTm594oS8-70">
          <mxGeometry y="118" width="280" height="92" as="geometry" />
        </mxCell>
        <mxCell id="_wEa0kd7vMuWTm594oS8-74" style="edgeStyle=orthogonalEdgeStyle;rounded=0;orthogonalLoop=1;jettySize=auto;html=1;exitX=1;exitY=0.5;exitDx=0;exitDy=0;" edge="1" parent="_wEa0kd7vMuWTm594oS8-70" source="_wEa0kd7vMuWTm594oS8-71" target="_wEa0kd7vMuWTm594oS8-71">
          <mxGeometry relative="1" as="geometry" />
        </mxCell>
        <mxCell id="_wEa0kd7vMuWTm594oS8-75" value="CrewMember" style="swimlane;fontStyle=1;align=center;verticalAlign=top;childLayout=stackLayout;horizontal=1;startSize=26;horizontalStack=0;resizeParent=1;resizeParentMax=0;resizeLast=0;collapsible=1;marginBottom=0;whiteSpace=wrap;html=1;" vertex="1" parent="WIyWlLk6GJQsqaUBKTNV-1">
          <mxGeometry x="240" y="631" width="280" height="210" as="geometry" />
        </mxCell>
        <mxCell id="_wEa0kd7vMuWTm594oS8-76" value="&lt;span style=&quot;border-color: var(--border-color);&quot;&gt;&lt;span style=&quot;border-color: var(--border-color);&quot;&gt;&lt;span style=&quot;border-color: var(--border-color);&quot;&gt;~ crewMemberPos: String&lt;br&gt;~ crewMemberID: int&lt;br&gt;~ flightID: String&lt;br&gt;~ name: String&lt;br style=&quot;border-color: var(--border-color);&quot;&gt;&lt;/span&gt;&lt;/span&gt;&lt;/span&gt;" style="text;strokeColor=none;fillColor=none;align=left;verticalAlign=top;spacingLeft=4;spacingRight=4;overflow=hidden;rotatable=0;points=[[0,0.5],[1,0.5]];portConstraint=eastwest;whiteSpace=wrap;html=1;" vertex="1" parent="_wEa0kd7vMuWTm594oS8-75">
          <mxGeometry y="26" width="280" height="84" as="geometry" />
        </mxCell>
        <mxCell id="_wEa0kd7vMuWTm594oS8-77" value="" style="line;strokeWidth=1;fillColor=none;align=left;verticalAlign=middle;spacingTop=-1;spacingLeft=3;spacingRight=3;rotatable=0;labelPosition=right;points=[];portConstraint=eastwest;strokeColor=inherit;" vertex="1" parent="_wEa0kd7vMuWTm594oS8-75">
          <mxGeometry y="110" width="280" height="8" as="geometry" />
        </mxCell>
        <mxCell id="_wEa0kd7vMuWTm594oS8-78" value="&amp;lt;&amp;lt;Constructor, Getters, and Setters&amp;gt;&amp;gt;" style="text;strokeColor=none;fillColor=none;align=left;verticalAlign=top;spacingLeft=4;spacingRight=4;overflow=hidden;rotatable=0;points=[[0,0.5],[1,0.5]];portConstraint=eastwest;whiteSpace=wrap;html=1;" vertex="1" parent="_wEa0kd7vMuWTm594oS8-75">
          <mxGeometry y="118" width="280" height="92" as="geometry" />
        </mxCell>
        <mxCell id="_wEa0kd7vMuWTm594oS8-79" style="edgeStyle=orthogonalEdgeStyle;rounded=0;orthogonalLoop=1;jettySize=auto;html=1;exitX=1;exitY=0.5;exitDx=0;exitDy=0;" edge="1" parent="_wEa0kd7vMuWTm594oS8-75" source="_wEa0kd7vMuWTm594oS8-76" target="_wEa0kd7vMuWTm594oS8-76">
          <mxGeometry relative="1" as="geometry" />
        </mxCell>
        <mxCell id="_wEa0kd7vMuWTm594oS8-80" value="DBMS" style="swimlane;fontStyle=1;align=center;verticalAlign=top;childLayout=stackLayout;horizontal=1;startSize=26;horizontalStack=0;resizeParent=1;resizeParentMax=0;resizeLast=0;collapsible=1;marginBottom=0;whiteSpace=wrap;html=1;" vertex="1" parent="WIyWlLk6GJQsqaUBKTNV-1">
          <mxGeometry x="414" y="-480" width="820" height="710" as="geometry" />
        </mxCell>
        <mxCell id="_wEa0kd7vMuWTm594oS8-81" value="&lt;span style=&quot;border-color: var(--border-color);&quot;&gt;&lt;span style=&quot;border-color: var(--border-color);&quot;&gt;&lt;span style=&quot;border-color: var(--border-color);&quot;&gt;&lt;u&gt;- instance: DBMS&lt;br&gt;&lt;/u&gt;- dbConnect: Connection&lt;br&gt;- results: ResultSet&lt;br style=&quot;border-color: var(--border-color);&quot;&gt;&lt;/span&gt;&lt;/span&gt;&lt;/span&gt;" style="text;strokeColor=none;fillColor=none;align=left;verticalAlign=top;spacingLeft=4;spacingRight=4;overflow=hidden;rotatable=0;points=[[0,0.5],[1,0.5]];portConstraint=eastwest;whiteSpace=wrap;html=1;" vertex="1" parent="_wEa0kd7vMuWTm594oS8-80">
          <mxGeometry y="26" width="820" height="64" as="geometry" />
        </mxCell>
        <mxCell id="_wEa0kd7vMuWTm594oS8-82" value="" style="line;strokeWidth=1;fillColor=none;align=left;verticalAlign=middle;spacingTop=-1;spacingLeft=3;spacingRight=3;rotatable=0;labelPosition=right;points=[];portConstraint=eastwest;strokeColor=inherit;" vertex="1" parent="_wEa0kd7vMuWTm594oS8-80">
          <mxGeometry y="90" width="820" height="8" as="geometry" />
        </mxCell>
        <mxCell id="_wEa0kd7vMuWTm594oS8-84" style="edgeStyle=orthogonalEdgeStyle;rounded=0;orthogonalLoop=1;jettySize=auto;html=1;exitX=1;exitY=0.5;exitDx=0;exitDy=0;" edge="1" parent="_wEa0kd7vMuWTm594oS8-80" source="_wEa0kd7vMuWTm594oS8-81" target="_wEa0kd7vMuWTm594oS8-81">
          <mxGeometry relative="1" as="geometry" />
        </mxCell>
        <mxCell id="_wEa0kd7vMuWTm594oS8-83" value="&lt;u&gt;+ getDBMS(): DBMS&lt;/u&gt;&lt;br&gt;+ closeConnection():void&lt;br&gt;+ getEmail(username:String): String&lt;br&gt;+ getEmail(orderID: int): String&lt;br&gt;+ getAircrafts(): ArrayList&amp;lt;Aircraft&amp;gt;&lt;br&gt;+ addAircraft(aircraftModel: String, numEconomySeats: int,numComfortSeats:int, numBusinessSeats:int, economyPrice:double, businessPrice:double): void&lt;br&gt;+ removeAircraft(airCraftID: int): void&lt;br&gt;+ getFlights():ArrayList&amp;lt;Flight&amp;gt;&lt;br&gt;+ getFlights(origin:String, destination:String): ArrayList&amp;lt;Flight&amp;gt;&lt;br&gt;+ getFlights(selectedDate: LocaDate): ArrayList&amp;lt;Flight&amp;gt;&lt;br&gt;+ getFlights(flightID: int): Flight&lt;br&gt;+ getOrigins():ArrayList&amp;lt;String&amp;gt;&lt;br&gt;+ getDestinations():ArrayList&amp;lt;String&amp;gt;&lt;br&gt;+ editFlightLocation(flightID: int, indicator:String, data: String): void&lt;br&gt;+ updateLocation(flightID: int, locationColumn: String, data: String): void&lt;br&gt;+ updateDateTime(flightID: int, dateTimeColumn: String, dateTime: String):void&lt;br&gt;+ getUsers(): ArrayList&amp;lt;Users&amp;gt;&lt;br&gt;+ getUser(username:String): User&lt;br&gt;+ updateUser(user:User):void&lt;br&gt;+ getEconomyPrice(aircraftID:int):double&lt;br&gt;+ getBusinessPrice(aircraftID:int):double&lt;br&gt;+ getCrewMembers(flight: int): ArrayList&amp;lt;CrewMember&amp;gt;&lt;br&gt;+ updateCrew(crewID:int, flight:int):void&lt;br&gt;+ getBookings(): ArrayList&amp;lt;Booking&amp;gt;&lt;br&gt;+ getCurrentPromotion():String&lt;br&gt;+ getOrders(flightID: int): ArrayList&amp;lt;Order&amp;gt;&lt;br&gt;+ getOrders(email:String): ArrayList&amp;lt;Order&amp;gt;&lt;br&gt;+ getOrder(orderID: int): Order&lt;br&gt;+ cancelOrder(orderID): void&lt;br&gt;+ cancelFlight(flightID: int, username: String): int&lt;br&gt;+ loginCheck(username:String,password:String):boolean&lt;br&gt;+ registerUser(username:String,password: String, email:String,address:String):boolean&lt;br&gt;&lt;br&gt;+ addOrder(email:String, username:String, flightID:int, aircraftModel:String, departureLocation:String, arrivalLocation:String, &lt;br&gt;&lt;span style=&quot;white-space: pre;&quot;&gt;&#x9;&lt;/span&gt;&lt;span style=&quot;white-space: pre;&quot;&gt;&#x9;&lt;/span&gt;&amp;nbsp; &amp;nbsp;departureTime:TimeStamp,arrivalTime:TimeStamp, seatClass:String,seatNumber:String, hasInsurance:boolean, totalPrice:double)&lt;br&gt;&lt;br&gt;+ updateCreditCardInfo(username:String): void&lt;br&gt;+ getCreditCardInfo(username:String): void&lt;br&gt;+ hasCreditCard(username:String):boolean&lt;br&gt;+ getUserType(username:String): String" style="text;strokeColor=none;fillColor=none;align=left;verticalAlign=top;spacingLeft=4;spacingRight=4;overflow=hidden;rotatable=0;points=[[0,0.5],[1,0.5]];portConstraint=eastwest;whiteSpace=wrap;html=1;" vertex="1" parent="_wEa0kd7vMuWTm594oS8-80">
          <mxGeometry y="98" width="820" height="612" as="geometry" />
        </mxCell>
        <mxCell id="_wEa0kd7vMuWTm594oS8-85" value="Email_Controller" style="swimlane;fontStyle=1;align=center;verticalAlign=top;childLayout=stackLayout;horizontal=1;startSize=26;horizontalStack=0;resizeParent=1;resizeParentMax=0;resizeLast=0;collapsible=1;marginBottom=0;whiteSpace=wrap;html=1;" vertex="1" parent="WIyWlLk6GJQsqaUBKTNV-1">
          <mxGeometry x="-890" y="-47" width="810" height="188" as="geometry" />
        </mxCell>
        <mxCell id="_wEa0kd7vMuWTm594oS8-86" value="&lt;span style=&quot;border-color: var(--border-color);&quot;&gt;&lt;span style=&quot;border-color: var(--border-color);&quot;&gt;&lt;span style=&quot;border-color: var(--border-color);&quot;&gt;- promoUsers: ArrayList&amp;lt;Users&amp;gt;&lt;br&gt;- &lt;u&gt;programEmail: String&lt;/u&gt;&lt;br&gt;- &lt;u&gt;programPassword: String&lt;/u&gt;&lt;br style=&quot;border-color: var(--border-color);&quot;&gt;&lt;/span&gt;&lt;/span&gt;&lt;/span&gt;" style="text;strokeColor=none;fillColor=none;align=left;verticalAlign=top;spacingLeft=4;spacingRight=4;overflow=hidden;rotatable=0;points=[[0,0.5],[1,0.5]];portConstraint=eastwest;whiteSpace=wrap;html=1;" vertex="1" parent="_wEa0kd7vMuWTm594oS8-85">
          <mxGeometry y="26" width="810" height="64" as="geometry" />
        </mxCell>
        <mxCell id="_wEa0kd7vMuWTm594oS8-87" value="" style="line;strokeWidth=1;fillColor=none;align=left;verticalAlign=middle;spacingTop=-1;spacingLeft=3;spacingRight=3;rotatable=0;labelPosition=right;points=[];portConstraint=eastwest;strokeColor=inherit;" vertex="1" parent="_wEa0kd7vMuWTm594oS8-85">
          <mxGeometry y="90" width="810" height="8" as="geometry" />
        </mxCell>
        <mxCell id="_wEa0kd7vMuWTm594oS8-88" value="+ notifyAboutPromotion(promotion:String):void&lt;br&gt;+ &lt;u&gt;sendReceipt(username:String,email:String,insurance:String,location:String,price:double):void&lt;/u&gt;&lt;br&gt;&lt;i&gt;+&lt;/i&gt;&lt;u&gt; sendTicket(username:String,email:String,aircraft:String,to:String,from:String,departure:LocalTime, arrive:LocalTime,seatClass:String,seat:String):void&lt;br&gt;&lt;/u&gt;+ &lt;u&gt;sendCancellationEmail(orderID: int, email:String):void&lt;/u&gt;" style="text;strokeColor=none;fillColor=none;align=left;verticalAlign=top;spacingLeft=4;spacingRight=4;overflow=hidden;rotatable=0;points=[[0,0.5],[1,0.5]];portConstraint=eastwest;whiteSpace=wrap;html=1;" vertex="1" parent="_wEa0kd7vMuWTm594oS8-85">
          <mxGeometry y="98" width="810" height="90" as="geometry" />
        </mxCell>
        <mxCell id="_wEa0kd7vMuWTm594oS8-90" value="FlightInfoFrame" style="swimlane;fontStyle=1;align=center;verticalAlign=top;childLayout=stackLayout;horizontal=1;startSize=26;horizontalStack=0;resizeParent=1;resizeParentMax=0;resizeLast=0;collapsible=1;marginBottom=0;whiteSpace=wrap;html=1;" vertex="1" parent="WIyWlLk6GJQsqaUBKTNV-1">
          <mxGeometry x="1444" y="444" width="200" height="170" as="geometry" />
        </mxCell>
        <mxCell id="_wEa0kd7vMuWTm594oS8-91" value="&lt;span style=&quot;border-color: var(--border-color);&quot;&gt;&lt;span style=&quot;border-color: var(--border-color);&quot;&gt;&lt;span style=&quot;border-color: var(--border-color);&quot;&gt;- table: JTable&lt;br&gt;- flights: ArrayList&amp;lt;Flights&amp;gt;&lt;br&gt;- username:String&lt;br style=&quot;border-color: var(--border-color);&quot;&gt;&lt;/span&gt;&lt;/span&gt;&lt;/span&gt;" style="text;strokeColor=none;fillColor=none;align=left;verticalAlign=top;spacingLeft=4;spacingRight=4;overflow=hidden;rotatable=0;points=[[0,0.5],[1,0.5]];portConstraint=eastwest;whiteSpace=wrap;html=1;" vertex="1" parent="_wEa0kd7vMuWTm594oS8-90">
          <mxGeometry y="26" width="200" height="54" as="geometry" />
        </mxCell>
        <mxCell id="_wEa0kd7vMuWTm594oS8-92" value="" style="line;strokeWidth=1;fillColor=none;align=left;verticalAlign=middle;spacingTop=-1;spacingLeft=3;spacingRight=3;rotatable=0;labelPosition=right;points=[];portConstraint=eastwest;strokeColor=inherit;" vertex="1" parent="_wEa0kd7vMuWTm594oS8-90">
          <mxGeometry y="80" width="200" height="8" as="geometry" />
        </mxCell>
        <mxCell id="_wEa0kd7vMuWTm594oS8-93" value="+ getSelectedFlight():Flight&lt;br&gt;+ getDepartureTime():LocalTime&lt;br&gt;+ getDepartureDate():LocalDate&lt;br&gt;+ getArrivalTime():LocalTime&lt;br style=&quot;border-color: var(--border-color);&quot;&gt;+ getArrivalDate():LocalDate" style="text;strokeColor=none;fillColor=none;align=left;verticalAlign=top;spacingLeft=4;spacingRight=4;overflow=hidden;rotatable=0;points=[[0,0.5],[1,0.5]];portConstraint=eastwest;whiteSpace=wrap;html=1;" vertex="1" parent="_wEa0kd7vMuWTm594oS8-90">
          <mxGeometry y="88" width="200" height="82" as="geometry" />
        </mxCell>
        <mxCell id="_wEa0kd7vMuWTm594oS8-94" style="edgeStyle=orthogonalEdgeStyle;rounded=0;orthogonalLoop=1;jettySize=auto;html=1;exitX=1;exitY=0.5;exitDx=0;exitDy=0;" edge="1" parent="_wEa0kd7vMuWTm594oS8-90" source="_wEa0kd7vMuWTm594oS8-91" target="_wEa0kd7vMuWTm594oS8-91">
          <mxGeometry relative="1" as="geometry" />
        </mxCell>
        <mxCell id="_wEa0kd7vMuWTm594oS8-95" value="LoginFrame" style="swimlane;fontStyle=1;align=center;verticalAlign=top;childLayout=stackLayout;horizontal=1;startSize=26;horizontalStack=0;resizeParent=1;resizeParentMax=0;resizeLast=0;collapsible=1;marginBottom=0;whiteSpace=wrap;html=1;" vertex="1" parent="WIyWlLk6GJQsqaUBKTNV-1">
          <mxGeometry x="870" y="299" width="330" height="200" as="geometry" />
        </mxCell>
        <mxCell id="_wEa0kd7vMuWTm594oS8-96" value="- &lt;u&gt;MAIN_FONT: Font(ReadOnly)&lt;br&gt;&lt;/u&gt;- &lt;u&gt;BUTTON&lt;/u&gt;&lt;span style=&quot;border-color: var(--border-color);&quot;&gt;&lt;u&gt;_FONT: Font(ReadOnly)&lt;/u&gt;&lt;br&gt;-&lt;/span&gt;&lt;span style=&quot;border-color: var(--border-color);&quot;&gt;&lt;u&gt;&amp;nbsp;GROUP&lt;/u&gt;&lt;span style=&quot;border-color: var(--border-color);&quot;&gt;&lt;u&gt;_FONT: Font(ReadOnly)&lt;/u&gt;&lt;br&gt;-&lt;/span&gt;&lt;span style=&quot;border-color: var(--border-color);&quot;&gt;&lt;u&gt;&amp;nbsp;INPUT&lt;/u&gt;&lt;span style=&quot;border-color: var(--border-color);&quot;&gt;&lt;u&gt;_FONT: Font(ReadOnly)&lt;/u&gt;&lt;br&gt;-&lt;span style=&quot;border-color: var(--border-color);&quot;&gt;&amp;nbsp;&lt;/span&gt;&lt;u style=&quot;text-decoration-line: underline; border-color: var(--border-color);&quot;&gt;BUTTON_COLOR&lt;u style=&quot;border-color: var(--border-color);&quot;&gt;: Color(ReadOnly)&lt;br&gt;&lt;/u&gt;&lt;/u&gt;- &lt;u&gt;BUTTON_TEXT_COLOR&lt;/u&gt;&lt;u style=&quot;text-decoration-line: underline; border-color: var(--border-color);&quot;&gt;: Color(ReadOnly)&lt;br&gt;&lt;/u&gt;- &lt;u&gt;BACKGROUND&lt;/u&gt;&lt;u style=&quot;border-color: var(--border-color);&quot;&gt;_COLOR&lt;u style=&quot;border-color: var(--border-color);&quot;&gt;: Color(ReadOnly)&lt;br&gt;&lt;/u&gt;&lt;/u&gt;-&lt;span style=&quot;border-color: var(--border-color);&quot;&gt;&lt;u style=&quot;border-color: var(--border-color);&quot;&gt;&amp;nbsp;INPUT&lt;/u&gt;&lt;span style=&quot;border-color: var(--border-color);&quot;&gt;&lt;u style=&quot;border-color: var(--border-color);&quot;&gt;_COLOR: Color(ReadOnly)&lt;/u&gt;&lt;/span&gt;&lt;/span&gt;&lt;br style=&quot;border-color: var(--border-color);&quot;&gt;&lt;/span&gt;&lt;/span&gt;&lt;/span&gt;" style="text;strokeColor=none;fillColor=none;align=left;verticalAlign=top;spacingLeft=4;spacingRight=4;overflow=hidden;rotatable=0;points=[[0,0.5],[1,0.5]];portConstraint=eastwest;whiteSpace=wrap;html=1;" vertex="1" parent="_wEa0kd7vMuWTm594oS8-95">
          <mxGeometry y="26" width="330" height="124" as="geometry" />
        </mxCell>
        <mxCell id="_wEa0kd7vMuWTm594oS8-97" value="" style="line;strokeWidth=1;fillColor=none;align=left;verticalAlign=middle;spacingTop=-1;spacingLeft=3;spacingRight=3;rotatable=0;labelPosition=right;points=[];portConstraint=eastwest;strokeColor=inherit;" vertex="1" parent="_wEa0kd7vMuWTm594oS8-95">
          <mxGeometry y="150" width="330" height="8" as="geometry" />
        </mxCell>
        <mxCell id="_wEa0kd7vMuWTm594oS8-98" value="- authenticate(username:String, pasword:String):boolean&lt;br&gt;- createAdminLoginPanel():void&lt;br&gt;" style="text;strokeColor=none;fillColor=none;align=left;verticalAlign=top;spacingLeft=4;spacingRight=4;overflow=hidden;rotatable=0;points=[[0,0.5],[1,0.5]];portConstraint=eastwest;whiteSpace=wrap;html=1;" vertex="1" parent="_wEa0kd7vMuWTm594oS8-95">
          <mxGeometry y="158" width="330" height="42" as="geometry" />
        </mxCell>
        <mxCell id="_wEa0kd7vMuWTm594oS8-100" value="Order" style="swimlane;fontStyle=1;align=center;verticalAlign=top;childLayout=stackLayout;horizontal=1;startSize=26;horizontalStack=0;resizeParent=1;resizeParentMax=0;resizeLast=0;collapsible=1;marginBottom=0;whiteSpace=wrap;html=1;" vertex="1" parent="WIyWlLk6GJQsqaUBKTNV-1">
          <mxGeometry x="-230" y="432" width="270" height="270" as="geometry" />
        </mxCell>
        <mxCell id="_wEa0kd7vMuWTm594oS8-101" value="&lt;span style=&quot;border-color: var(--border-color);&quot;&gt;&lt;span style=&quot;border-color: var(--border-color);&quot;&gt;&lt;span style=&quot;border-color: var(--border-color);&quot;&gt;- orderID: int&lt;br&gt;- email: String&lt;br&gt;- username: String&lt;br&gt;-flightID: int&lt;br&gt;- aircraftModel: String&lt;br&gt;- departureLocation: String&lt;br&gt;- arrivalLocation: String&amp;nbsp;&lt;br&gt;- departureTime:String&lt;br&gt;- arrivalTime: String&lt;br&gt;- seatClass: String&lt;br&gt;- seatNumber: String&lt;br&gt;- insurance: boolean&lt;br&gt;- totalPrice: double&lt;br style=&quot;border-color: var(--border-color);&quot;&gt;&lt;/span&gt;&lt;/span&gt;&lt;/span&gt;" style="text;strokeColor=none;fillColor=none;align=left;verticalAlign=top;spacingLeft=4;spacingRight=4;overflow=hidden;rotatable=0;points=[[0,0.5],[1,0.5]];portConstraint=eastwest;whiteSpace=wrap;html=1;" vertex="1" parent="_wEa0kd7vMuWTm594oS8-100">
          <mxGeometry y="26" width="270" height="204" as="geometry" />
        </mxCell>
        <mxCell id="_wEa0kd7vMuWTm594oS8-102" value="" style="line;strokeWidth=1;fillColor=none;align=left;verticalAlign=middle;spacingTop=-1;spacingLeft=3;spacingRight=3;rotatable=0;labelPosition=right;points=[];portConstraint=eastwest;strokeColor=inherit;" vertex="1" parent="_wEa0kd7vMuWTm594oS8-100">
          <mxGeometry y="230" width="270" height="8" as="geometry" />
        </mxCell>
        <mxCell id="_wEa0kd7vMuWTm594oS8-103" value="&amp;lt;&amp;lt;Constructor, Getters, and Setters&amp;gt;&amp;gt;" style="text;strokeColor=none;fillColor=none;align=left;verticalAlign=top;spacingLeft=4;spacingRight=4;overflow=hidden;rotatable=0;points=[[0,0.5],[1,0.5]];portConstraint=eastwest;whiteSpace=wrap;html=1;" vertex="1" parent="_wEa0kd7vMuWTm594oS8-100">
          <mxGeometry y="238" width="270" height="32" as="geometry" />
        </mxCell>
        <mxCell id="_wEa0kd7vMuWTm594oS8-104" value="PassListFrame" style="swimlane;fontStyle=1;align=center;verticalAlign=top;childLayout=stackLayout;horizontal=1;startSize=26;horizontalStack=0;resizeParent=1;resizeParentMax=0;resizeLast=0;collapsible=1;marginBottom=0;whiteSpace=wrap;html=1;" vertex="1" parent="WIyWlLk6GJQsqaUBKTNV-1">
          <mxGeometry x="1710" y="357" width="160" height="34" as="geometry" />
        </mxCell>
        <mxCell id="_wEa0kd7vMuWTm594oS8-105" value="" style="line;strokeWidth=1;fillColor=none;align=left;verticalAlign=middle;spacingTop=-1;spacingLeft=3;spacingRight=3;rotatable=0;labelPosition=right;points=[];portConstraint=eastwest;strokeColor=inherit;" vertex="1" parent="_wEa0kd7vMuWTm594oS8-104">
          <mxGeometry y="26" width="160" height="8" as="geometry" />
        </mxCell>
        <mxCell id="_wEa0kd7vMuWTm594oS8-106" value="" style="endArrow=block;dashed=1;endFill=0;endSize=12;html=1;rounded=0;entryX=1.02;entryY=0.535;entryDx=0;entryDy=0;exitX=0;exitY=0.5;exitDx=0;exitDy=0;entryPerimeter=0;" edge="1" parent="WIyWlLk6GJQsqaUBKTNV-1" source="_wEa0kd7vMuWTm594oS8-104" target="bj67NkAzpCeHK8tnrzcI-17">
          <mxGeometry width="160" relative="1" as="geometry">
            <mxPoint x="1611" y="282" as="sourcePoint" />
            <mxPoint x="1560" y="376" as="targetPoint" />
          </mxGeometry>
        </mxCell>
        <mxCell id="_wEa0kd7vMuWTm594oS8-108" value="RegisterUser" style="swimlane;fontStyle=1;align=center;verticalAlign=top;childLayout=stackLayout;horizontal=1;startSize=26;horizontalStack=0;resizeParent=1;resizeParentMax=0;resizeLast=0;collapsible=1;marginBottom=0;whiteSpace=wrap;html=1;" vertex="1" parent="WIyWlLk6GJQsqaUBKTNV-1">
          <mxGeometry x="230" y="870" width="220" height="110" as="geometry" />
        </mxCell>
        <mxCell id="_wEa0kd7vMuWTm594oS8-109" value="&lt;span style=&quot;border-color: var(--border-color);&quot;&gt;&lt;span style=&quot;border-color: var(--border-color);&quot;&gt;&lt;span style=&quot;border-color: var(--border-color);&quot;&gt;~ crediCard: CrediCard&lt;br&gt;~ companionTickets: int&lt;br style=&quot;border-color: var(--border-color);&quot;&gt;&lt;/span&gt;&lt;/span&gt;&lt;/span&gt;" style="text;strokeColor=none;fillColor=none;align=left;verticalAlign=top;spacingLeft=4;spacingRight=4;overflow=hidden;rotatable=0;points=[[0,0.5],[1,0.5]];portConstraint=eastwest;whiteSpace=wrap;html=1;" vertex="1" parent="_wEa0kd7vMuWTm594oS8-108">
          <mxGeometry y="26" width="220" height="44" as="geometry" />
        </mxCell>
        <mxCell id="_wEa0kd7vMuWTm594oS8-110" value="" style="line;strokeWidth=1;fillColor=none;align=left;verticalAlign=middle;spacingTop=-1;spacingLeft=3;spacingRight=3;rotatable=0;labelPosition=right;points=[];portConstraint=eastwest;strokeColor=inherit;" vertex="1" parent="_wEa0kd7vMuWTm594oS8-108">
          <mxGeometry y="70" width="220" height="8" as="geometry" />
        </mxCell>
        <mxCell id="_wEa0kd7vMuWTm594oS8-111" value="&amp;lt;&amp;lt;Constructor, Getters, and Setters&amp;gt;&amp;gt;" style="text;strokeColor=none;fillColor=none;align=left;verticalAlign=top;spacingLeft=4;spacingRight=4;overflow=hidden;rotatable=0;points=[[0,0.5],[1,0.5]];portConstraint=eastwest;whiteSpace=wrap;html=1;" vertex="1" parent="_wEa0kd7vMuWTm594oS8-108">
          <mxGeometry y="78" width="220" height="32" as="geometry" />
        </mxCell>
        <mxCell id="_wEa0kd7vMuWTm594oS8-112" style="edgeStyle=orthogonalEdgeStyle;rounded=0;orthogonalLoop=1;jettySize=auto;html=1;exitX=1;exitY=0.5;exitDx=0;exitDy=0;" edge="1" parent="_wEa0kd7vMuWTm594oS8-108" source="_wEa0kd7vMuWTm594oS8-109" target="_wEa0kd7vMuWTm594oS8-109">
          <mxGeometry relative="1" as="geometry" />
        </mxCell>
        <mxCell id="_wEa0kd7vMuWTm594oS8-113" value="RegisterFrame" style="swimlane;fontStyle=1;align=center;verticalAlign=top;childLayout=stackLayout;horizontal=1;startSize=26;horizontalStack=0;resizeParent=1;resizeParentMax=0;resizeLast=0;collapsible=1;marginBottom=0;whiteSpace=wrap;html=1;" vertex="1" parent="WIyWlLk6GJQsqaUBKTNV-1">
          <mxGeometry x="1100" y="540" width="260" height="190" as="geometry" />
        </mxCell>
        <mxCell id="_wEa0kd7vMuWTm594oS8-114" value="- &lt;u&gt;MAIN_FONT: Font(ReadOnly)&lt;/u&gt;&lt;span style=&quot;border-color: var(--border-color);&quot;&gt;&lt;span style=&quot;border-color: var(--border-color);&quot;&gt;&lt;br&gt;-&lt;/span&gt;&lt;span style=&quot;border-color: var(--border-color);&quot;&gt;&lt;u&gt;&amp;nbsp;INPUT&lt;/u&gt;&lt;span style=&quot;border-color: var(--border-color);&quot;&gt;&lt;u&gt;_FONT: Font(ReadOnly)&lt;/u&gt;&lt;u style=&quot;text-decoration-line: underline; border-color: var(--border-color);&quot;&gt;&lt;br&gt;&lt;/u&gt;- &lt;u&gt;BACKGROUND&lt;/u&gt;&lt;u style=&quot;border-color: var(--border-color);&quot;&gt;_COLOR&lt;u style=&quot;border-color: var(--border-color);&quot;&gt;: Color(ReadOnly)&lt;br&gt;&lt;/u&gt;&lt;/u&gt;-&lt;span style=&quot;border-color: var(--border-color);&quot;&gt;&lt;u style=&quot;border-color: var(--border-color);&quot;&gt;&amp;nbsp;INPUT&lt;/u&gt;&lt;span style=&quot;border-color: var(--border-color);&quot;&gt;&lt;u style=&quot;border-color: var(--border-color);&quot;&gt;_COLOR: Color(ReadOnly)&lt;br&gt;&lt;/u&gt;&lt;/span&gt;&lt;/span&gt;- userTextField: JTextField&lt;br&gt;- passField: JPasswordField&lt;br&gt;- emailTextField: JTextField&lt;br&gt;- addressTextField: JTextField&lt;br style=&quot;border-color: var(--border-color);&quot;&gt;&lt;/span&gt;&lt;/span&gt;&lt;/span&gt;" style="text;strokeColor=none;fillColor=none;align=left;verticalAlign=top;spacingLeft=4;spacingRight=4;overflow=hidden;rotatable=0;points=[[0,0.5],[1,0.5]];portConstraint=eastwest;whiteSpace=wrap;html=1;" vertex="1" parent="_wEa0kd7vMuWTm594oS8-113">
          <mxGeometry y="26" width="260" height="124" as="geometry" />
        </mxCell>
        <mxCell id="_wEa0kd7vMuWTm594oS8-115" value="" style="line;strokeWidth=1;fillColor=none;align=left;verticalAlign=middle;spacingTop=-1;spacingLeft=3;spacingRight=3;rotatable=0;labelPosition=right;points=[];portConstraint=eastwest;strokeColor=inherit;" vertex="1" parent="_wEa0kd7vMuWTm594oS8-113">
          <mxGeometry y="150" width="260" height="8" as="geometry" />
        </mxCell>
        <mxCell id="_wEa0kd7vMuWTm594oS8-116" value="- registerUser():void" style="text;strokeColor=none;fillColor=none;align=left;verticalAlign=top;spacingLeft=4;spacingRight=4;overflow=hidden;rotatable=0;points=[[0,0.5],[1,0.5]];portConstraint=eastwest;whiteSpace=wrap;html=1;" vertex="1" parent="_wEa0kd7vMuWTm594oS8-113">
          <mxGeometry y="158" width="260" height="32" as="geometry" />
        </mxCell>
        <mxCell id="_wEa0kd7vMuWTm594oS8-117" value="Seat" style="swimlane;fontStyle=1;align=center;verticalAlign=top;childLayout=stackLayout;horizontal=1;startSize=26;horizontalStack=0;resizeParent=1;resizeParentMax=0;resizeLast=0;collapsible=1;marginBottom=0;whiteSpace=wrap;html=1;" vertex="1" parent="WIyWlLk6GJQsqaUBKTNV-1">
          <mxGeometry x="-70" y="40" width="220" height="150" as="geometry" />
        </mxCell>
        <mxCell id="_wEa0kd7vMuWTm594oS8-118" value="&lt;span style=&quot;border-color: var(--border-color);&quot;&gt;&lt;span style=&quot;border-color: var(--border-color);&quot;&gt;&lt;span style=&quot;border-color: var(--border-color);&quot;&gt;~ SEATNUMBER: String(ReadOnly)&lt;br&gt;~ CLASS: String&lt;br&gt;~ isAvailable:&amp;nbsp; boolean&lt;br&gt;~ price: int&lt;br&gt;~ passenger: User&lt;br style=&quot;border-color: var(--border-color);&quot;&gt;&lt;/span&gt;&lt;/span&gt;&lt;/span&gt;" style="text;strokeColor=none;fillColor=none;align=left;verticalAlign=top;spacingLeft=4;spacingRight=4;overflow=hidden;rotatable=0;points=[[0,0.5],[1,0.5]];portConstraint=eastwest;whiteSpace=wrap;html=1;" vertex="1" parent="_wEa0kd7vMuWTm594oS8-117">
          <mxGeometry y="26" width="220" height="84" as="geometry" />
        </mxCell>
        <mxCell id="_wEa0kd7vMuWTm594oS8-119" value="" style="line;strokeWidth=1;fillColor=none;align=left;verticalAlign=middle;spacingTop=-1;spacingLeft=3;spacingRight=3;rotatable=0;labelPosition=right;points=[];portConstraint=eastwest;strokeColor=inherit;" vertex="1" parent="_wEa0kd7vMuWTm594oS8-117">
          <mxGeometry y="110" width="220" height="8" as="geometry" />
        </mxCell>
        <mxCell id="_wEa0kd7vMuWTm594oS8-120" value="&amp;lt;&amp;lt;,Constructor,Getters, and Setters&amp;gt;&amp;gt;" style="text;strokeColor=none;fillColor=none;align=left;verticalAlign=top;spacingLeft=4;spacingRight=4;overflow=hidden;rotatable=0;points=[[0,0.5],[1,0.5]];portConstraint=eastwest;whiteSpace=wrap;html=1;" vertex="1" parent="_wEa0kd7vMuWTm594oS8-117">
          <mxGeometry y="118" width="220" height="32" as="geometry" />
        </mxCell>
        <mxCell id="_wEa0kd7vMuWTm594oS8-121" value="&lt;i&gt;User&lt;/i&gt;" style="swimlane;fontStyle=1;align=center;verticalAlign=top;childLayout=stackLayout;horizontal=1;startSize=26;horizontalStack=0;resizeParent=1;resizeParentMax=0;resizeLast=0;collapsible=1;marginBottom=0;whiteSpace=wrap;html=1;" vertex="1" parent="WIyWlLk6GJQsqaUBKTNV-1">
          <mxGeometry x="-40" y="841" width="220" height="140" as="geometry" />
        </mxCell>
        <mxCell id="_wEa0kd7vMuWTm594oS8-122" value="&lt;span style=&quot;border-color: var(--border-color);&quot;&gt;&lt;span style=&quot;border-color: var(--border-color);&quot;&gt;&lt;span style=&quot;border-color: var(--border-color);&quot;&gt;~ userID: int&lt;br&gt;~ username: String&lt;br&gt;~ email: String&lt;br&gt;~ address: String&lt;br style=&quot;border-color: var(--border-color);&quot;&gt;&lt;/span&gt;&lt;/span&gt;&lt;/span&gt;" style="text;strokeColor=none;fillColor=none;align=left;verticalAlign=top;spacingLeft=4;spacingRight=4;overflow=hidden;rotatable=0;points=[[0,0.5],[1,0.5]];portConstraint=eastwest;whiteSpace=wrap;html=1;" vertex="1" parent="_wEa0kd7vMuWTm594oS8-121">
          <mxGeometry y="26" width="220" height="74" as="geometry" />
        </mxCell>
        <mxCell id="_wEa0kd7vMuWTm594oS8-123" value="" style="line;strokeWidth=1;fillColor=none;align=left;verticalAlign=middle;spacingTop=-1;spacingLeft=3;spacingRight=3;rotatable=0;labelPosition=right;points=[];portConstraint=eastwest;strokeColor=inherit;" vertex="1" parent="_wEa0kd7vMuWTm594oS8-121">
          <mxGeometry y="100" width="220" height="8" as="geometry" />
        </mxCell>
        <mxCell id="_wEa0kd7vMuWTm594oS8-124" value="&amp;lt;&amp;lt;Constructor, Getters, and Setters&amp;gt;&amp;gt;" style="text;strokeColor=none;fillColor=none;align=left;verticalAlign=top;spacingLeft=4;spacingRight=4;overflow=hidden;rotatable=0;points=[[0,0.5],[1,0.5]];portConstraint=eastwest;whiteSpace=wrap;html=1;" vertex="1" parent="_wEa0kd7vMuWTm594oS8-121">
          <mxGeometry y="108" width="220" height="32" as="geometry" />
        </mxCell>
        <mxCell id="_wEa0kd7vMuWTm594oS8-125" style="edgeStyle=orthogonalEdgeStyle;rounded=0;orthogonalLoop=1;jettySize=auto;html=1;exitX=1;exitY=0.5;exitDx=0;exitDy=0;" edge="1" parent="_wEa0kd7vMuWTm594oS8-121" source="_wEa0kd7vMuWTm594oS8-122" target="_wEa0kd7vMuWTm594oS8-122">
          <mxGeometry relative="1" as="geometry" />
        </mxCell>
        <mxCell id="_wEa0kd7vMuWTm594oS8-126" value="Flight" style="swimlane;fontStyle=1;align=center;verticalAlign=top;childLayout=stackLayout;horizontal=1;startSize=26;horizontalStack=0;resizeParent=1;resizeParentMax=0;resizeLast=0;collapsible=1;marginBottom=0;whiteSpace=wrap;html=1;" vertex="1" parent="WIyWlLk6GJQsqaUBKTNV-1">
          <mxGeometry x="110" y="262" width="330" height="230" as="geometry" />
        </mxCell>
        <mxCell id="_wEa0kd7vMuWTm594oS8-127" value="&lt;span style=&quot;border-color: var(--border-color);&quot;&gt;&lt;span style=&quot;border-color: var(--border-color);&quot;&gt;&lt;span style=&quot;border-color: var(--border-color);&quot;&gt;&lt;div&gt;~ seats: HashMap&amp;lt;String, Seat&amp;gt;&lt;/div&gt;&lt;div&gt;~ aircraft: Aircraft&lt;/div&gt;&lt;div&gt;~ flightID: int&lt;/div&gt;&lt;div&gt;~ crew: ArrayList&amp;lt;CrewMember&amp;gt;&lt;/div&gt;&lt;div&gt;~ departureTime: LocalTime&lt;/div&gt;&lt;div&gt;~ arrivalTime: LocalTime&lt;/div&gt;&lt;div&gt;~ departureLocation: String&lt;/div&gt;&lt;div&gt;~ arrivalLocation: String&lt;/div&gt;&lt;div&gt;~ departureDate: LocalDate&lt;/div&gt;&lt;div&gt;~ arrivalDate: LocalDate&lt;/div&gt;&lt;/span&gt;&lt;/span&gt;&lt;/span&gt;" style="text;strokeColor=none;fillColor=none;align=left;verticalAlign=top;spacingLeft=4;spacingRight=4;overflow=hidden;rotatable=0;points=[[0,0.5],[1,0.5]];portConstraint=eastwest;whiteSpace=wrap;html=1;" vertex="1" parent="_wEa0kd7vMuWTm594oS8-126">
          <mxGeometry y="26" width="330" height="164" as="geometry" />
        </mxCell>
        <mxCell id="_wEa0kd7vMuWTm594oS8-128" value="" style="line;strokeWidth=1;fillColor=none;align=left;verticalAlign=middle;spacingTop=-1;spacingLeft=3;spacingRight=3;rotatable=0;labelPosition=right;points=[];portConstraint=eastwest;strokeColor=inherit;" vertex="1" parent="_wEa0kd7vMuWTm594oS8-126">
          <mxGeometry y="190" width="330" height="8" as="geometry" />
        </mxCell>
        <mxCell id="_wEa0kd7vMuWTm594oS8-129" value="&lt;u&gt;+ getFlightByID(flights: ArrayList&amp;lt;Flight&amp;gt;, flightID:int):Flight&lt;/u&gt;" style="text;strokeColor=none;fillColor=none;align=left;verticalAlign=top;spacingLeft=4;spacingRight=4;overflow=hidden;rotatable=0;points=[[0,0.5],[1,0.5]];portConstraint=eastwest;whiteSpace=wrap;html=1;" vertex="1" parent="_wEa0kd7vMuWTm594oS8-126">
          <mxGeometry y="198" width="330" height="32" as="geometry" />
        </mxCell>
        <mxCell id="_wEa0kd7vMuWTm594oS8-131" value="" style="endArrow=classic;html=1;rounded=0;exitX=0.25;exitY=0;exitDx=0;exitDy=0;entryX=0.98;entryY=1.005;entryDx=0;entryDy=0;entryPerimeter=0;" edge="1" parent="WIyWlLk6GJQsqaUBKTNV-1" source="bj67NkAzpCeHK8tnrzcI-17" target="_wEa0kd7vMuWTm594oS8-83">
          <mxGeometry width="50" height="50" relative="1" as="geometry">
            <mxPoint x="610" y="280" as="sourcePoint" />
            <mxPoint x="895.6400000000012" y="203.25400000000036" as="targetPoint" />
          </mxGeometry>
        </mxCell>
      </root>
    </mxGraphModel>
  </diagram>
</mxfile>
